<svg width="283" height="115" viewBox="0 0 283 115" fill="none" xmlns="http://www.w3.org/2000/svg">
<path d="M179.917 72.737C180.414 72.737 180.757 72.3932 180.757 71.8983V47.3281H189.11C189.607 47.3281 189.949 46.9859 189.949 46.49V43.1008C189.949 42.6054 189.607 42.2621 189.11 42.2621H166.872C166.375 42.2621 166.032 42.6054 166.032 43.1008V46.49C166.032 46.9859 166.375 47.3281 166.872 47.3281H175.225V71.8983C175.225 72.3932 175.569 72.737 176.064 72.737H179.917ZM217.985 71.6705C218.481 72.2035 218.177 72.7365 217.564 72.7365H212.721C212.073 72.7365 211.728 72.5845 211.308 72.0885L208.411 68.8901C206.465 71.4798 203.755 73.4226 199.255 73.4226C193.686 73.4226 189.298 70.071 189.298 64.3188C189.298 59.8991 191.664 57.5377 195.249 55.5567C193.496 53.5376 192.694 51.4046 192.694 49.5391C192.694 44.8142 196.012 41.577 201.01 41.577C206.121 41.577 209.249 44.5864 209.249 49.0437C209.249 52.8514 206.503 54.985 203.603 56.5856L207.876 61.1956L210.279 57.0036C210.585 56.5093 210.928 56.3186 211.538 56.3186H215.237C215.848 56.3186 216.192 56.7382 215.811 57.3857L211.538 64.6981L217.985 71.6705ZM201.086 46.2998C199.103 46.2998 197.959 47.5576 197.959 49.2339C197.959 50.5293 198.644 51.671 200.209 53.3474C202.917 51.7855 204.062 50.8345 204.062 49.1571C204.062 47.5952 203.07 46.2998 201.086 46.2998ZM199.37 68.6225C201.81 68.6225 203.451 67.4421 204.787 65.4229L198.607 58.7939C196.242 60.1274 194.716 61.461 194.716 64.1281C194.716 66.7576 196.851 68.6225 199.37 68.6225ZM169.74 71.7457C169.93 72.2417 169.625 72.737 169.091 72.737H165.124C164.552 72.737 164.208 72.4711 164.018 71.9359L161.767 65.4616H149.447L147.194 71.9359C147.004 72.4711 146.662 72.737 146.089 72.737H142.351C141.855 72.737 141.511 72.2417 141.703 71.7457L152.04 43.0239C152.231 42.4904 152.574 42.2621 153.145 42.2621H158.258C158.83 42.2621 159.211 42.4904 159.402 43.0239L169.74 71.7457ZM160.012 60.4708L155.626 47.9004L151.2 60.4708H160.012ZM224.012 72.737C223.517 72.737 223.173 72.3932 223.173 71.8983V47.3281H214.818C214.322 47.3281 213.979 46.9859 213.979 46.49V43.1008C213.979 42.6054 214.322 42.2621 214.818 42.2621H237.058C237.554 42.2621 237.897 42.6054 237.897 43.1008V46.49C237.897 46.9859 237.554 47.3281 237.058 47.3281H228.703V71.8983C228.703 72.3932 228.361 72.737 227.865 72.737H224.012Z" fill="black"/>
<path d="M112.072 87.3657C112.155 87.3132 112.196 87.3657 112.113 87.4393C105.103 93.573 95.9209 97.3077 85.851 97.3077C76.648 97.3077 68.1654 94.1679 61.4063 88.9415C61.3438 88.8889 61.3748 88.8265 61.4584 88.8685C65.8356 91.3089 73.5869 94.0424 85.851 94.0424C99.9637 94.0424 108.927 89.4628 112.072 87.3657ZM122.946 72.1045C122.256 73.8361 121.41 75.5987 120.543 77.0804C119.039 79.6574 117.358 81.5765 115.591 83.0156C109.146 88.3051 98.3659 90.9755 88.5567 90.9755C69.92 90.9755 54.8355 85.2067 49.8631 74.6499C49.8315 74.5659 49.8841 74.5349 49.9367 74.6079C55.274 82.3378 68.9068 86.3855 81.5784 86.3855C99.5048 86.3855 116.866 80.8881 122.863 72.0729C122.925 71.9795 122.977 72.0215 122.946 72.1045ZM125.661 55.3405C125.693 55.9973 125.714 56.6652 125.714 57.4995C125.714 60.9528 125.213 65.0624 124.241 67.3375C122.884 70.5188 116.24 80.1893 87.1775 80.1893C65.8467 80.1893 53.53 72.9813 48.5886 67.8379C47.5023 66.7011 46.7604 65.2708 46.5832 64.3641C46.2062 62.497 45.9875 59.68 45.9875 57.4995C45.9875 57.4165 46.0501 57.3955 46.0716 57.4895C47.8157 63.9677 57.4366 73.4612 77.8384 73.4612C99.2955 73.4612 124.126 63.1118 125.578 55.3305C125.599 55.2254 125.661 55.2365 125.661 55.3405ZM121.64 39.9432C122.57 41.8318 123.667 44.5227 124.251 46.8288C124.774 48.8944 124.753 50.427 124.346 51.8777C122.131 59.763 108.457 64.0821 90.8549 64.0821C62.0021 64.0821 49.6328 55.7888 47.1889 50.6039C46.8855 49.9576 46.813 49.5407 46.9796 48.6749C47.3667 46.6513 48.6622 42.7391 49.8315 40.4231C49.8631 40.3606 49.9257 40.3711 49.9052 40.4441C49.7064 41.2369 49.5497 41.9988 49.5497 42.7601C49.5497 50.6879 62.7124 56.9676 78.4862 56.9676C93.0485 56.9676 121.912 50.3015 121.567 39.9636C121.556 39.8912 121.609 39.8807 121.64 39.9432ZM60.1318 27.1953C59.0035 28.5825 58.4913 29.9492 58.4913 31.2844C58.4913 35.0197 61.4584 40.8925 77.3058 40.8925C98.8775 40.8925 112.427 33.0691 112.427 28.6461C112.427 28.2701 112.343 27.9887 112.176 27.7277C112.134 27.6653 112.176 27.6232 112.238 27.6752C113.523 28.8446 114.735 30.0333 116.02 31.494C117.994 33.7365 118.767 34.8942 118.767 36.8769C118.767 42.4262 110.128 48.7368 90.7713 48.7368C72.6047 48.7368 53.174 43.125 53.174 35.3846C53.174 34.8528 53.6662 33.9659 54.4596 32.9647C56.1206 30.8466 58.0113 28.8855 60.0693 27.1433C60.1423 27.0814 60.1944 27.1118 60.1318 27.1953ZM85.851 17.6923C93.3303 17.6923 100.267 19.7269 106.242 23.3047C107.851 24.2639 108.645 24.9008 108.645 25.8081C108.645 29.6158 97.9479 33.5695 84.1584 33.5695C70.2234 33.5695 62.3675 29.9603 62.3675 26.601C62.3675 25.4642 63.3807 24.5779 65.1779 23.4716C71.174 19.7999 78.3184 17.6923 85.851 17.6923Z" fill="#019FDB"/>
</svg>
