<svg width="265" height="107" viewBox="0 0 265 107" fill="none" xmlns="http://www.w3.org/2000/svg">
<path d="M6.625 55.674H14.5143C14.6317 55.815 14.7022 55.8541 14.7178 55.9168C15.5553 59.7612 17.4807 61.4837 21.4097 62.0161C23.5568 62.3625 25.7553 62.1989 27.8276 61.5385C29.5943 61.028 30.8483 59.46 30.9583 57.6236C31.1618 55.6897 30.0348 54.5622 28.532 53.7088C26.004 52.2681 23.1864 51.72 20.4 51.0545C18.2633 50.5456 16.1345 49.9897 14.0447 49.332C10.1314 48.1027 7.96337 45.3388 7.39202 41.3614C6.69544 36.4834 8.01033 32.2084 12.182 29.562C14.0678 28.4278 16.1776 27.7171 18.3651 27.4793C21.8251 26.9227 25.3634 27.0988 28.7512 27.9961C34.0655 29.5228 37.7597 34.4947 37.431 39.7015H29.8547C29.0721 36.092 27.2954 34.3773 23.5934 34.0484C21.9658 33.9141 20.3274 34.0063 18.7251 34.3225C17.7434 34.5764 16.8619 35.1225 16.1971 35.8884C15.3584 36.695 14.9665 37.8607 15.1474 39.0104C15.3283 40.1601 16.0592 41.149 17.105 41.6589C18.2713 42.2859 19.5055 42.7771 20.7836 43.123C24.1334 44.1096 27.5224 44.9474 30.8644 45.9417C35.9674 47.4607 38.652 50.5691 38.8946 55.0947C39.2233 61.1079 36.7344 65.4612 31.7488 67.5126C27.7572 69.1568 23.5777 69.2194 19.3747 68.7966C16.4262 68.5807 13.6075 67.4964 11.2741 65.6804C8.88644 63.7468 7.31342 60.9853 6.86763 57.9447C6.80501 57.6002 6.70327 57.2713 6.625 56.9268V55.674ZM216.037 39.5449C219.896 36.687 224.208 36.46 228.638 36.8906C230.979 37.0776 233.257 37.7438 235.33 38.848C236.185 39.3216 236.997 39.8691 237.756 40.4844C238.812 41.3024 239.397 42.5879 239.322 43.9217C239.243 51.5791 239.322 59.2444 239.322 66.9097V68.2094C237.545 68.2094 235.87 68.3347 234.211 68.2094C232.082 68.0058 230.822 66.4399 230.814 64.2476V48.9248C230.869 48.0877 230.763 47.2476 230.501 46.4507C230.168 45.542 229.588 44.7446 228.826 44.1487C226.901 42.894 224.443 42.7949 222.424 43.8903C220.467 44.8456 219.911 46.7012 219.903 48.7291V68.1937H211.881V48.5412C211.881 45.0648 209.995 43.217 206.457 43.217C203.139 43.217 201.135 45.2371 201.135 48.6038V68.1781H193.05C193.05 67.8414 193.003 67.5047 193.003 67.1759C193.003 61.3662 192.964 55.5644 193.003 49.7548C193.003 46.0592 193.786 42.575 196.705 39.952C199.311 37.6031 202.528 36.8201 205.909 36.7575C209.533 36.6557 213.047 37.0942 216.037 39.5449ZM48.4354 66.5417C48.4354 69.4778 48.318 72.3435 48.4354 75.2013C48.5919 78.2392 46.4944 80.0792 43.8176 79.813C42.7845 79.7112 41.7357 79.813 40.64 79.813C40.64 79.3746 40.5852 79.03 40.5852 78.6934C40.5852 69.5326 40.5147 60.364 40.6321 51.2033C40.7071 49.0057 41.0864 46.8292 41.7592 44.736C42.6446 41.7602 44.8677 39.3683 47.7701 38.2686C51.4269 36.6957 55.4886 36.3256 59.3693 37.2116C64.308 38.3626 67.517 41.4005 68.8319 46.2784C70.1653 50.9102 70.034 55.8411 68.4562 60.3954C66.9613 64.6077 64.308 67.8101 59.7059 68.7496C56.2166 69.4788 52.5808 68.8577 49.5311 67.0115C49.2885 66.8705 49.0537 66.7139 48.8111 66.5808C48.6879 66.5527 48.5617 66.5395 48.4354 66.5417ZM61.6704 52.9493C61.5967 51.004 61.2245 49.0815 60.5668 47.2493C59.5885 44.7281 57.4361 43.6633 54.8142 43.7181C52.3684 43.6101 50.1636 45.1828 49.4685 47.5312C48.9043 49.3074 48.5753 51.1501 48.4902 53.0119C48.3087 55.1165 48.7612 57.2272 49.7894 59.0721C50.921 61.1183 53.1407 62.3173 55.4716 62.1414C57.6702 62.1499 59.6609 60.8428 60.5277 58.8216C61.3604 56.9799 61.7517 54.969 61.6704 52.9493ZM99.3326 58.7746C98.276 62.8461 96.0063 65.7665 92.2886 67.3873C88.475 69.1155 84.1397 69.2952 80.1963 67.8884C76.2046 66.5338 73.7314 63.5742 72.5104 59.6124C71.2256 55.4316 71.1442 50.9732 72.2756 46.7482C73.841 40.7506 77.997 37.3056 84.1801 36.8906C87.4098 36.5324 90.6704 37.198 93.5017 38.7932C97.4855 41.1891 98.9804 45.057 99.5831 49.3946C99.8257 51.1485 99.8179 52.9337 99.9275 54.8754H80.0006C79.6724 56.5224 80.0458 58.2316 81.0308 59.5915C82.0157 60.9514 83.5231 61.8386 85.1897 62.0396C88.0465 62.3058 90.7624 62.1884 92.2964 59.1348C92.4674 58.9313 92.7195 58.8138 92.9851 58.8138C95.0671 58.7668 97.0942 58.7746 99.3326 58.7746ZM91.5059 49.6922C91.3415 47.3824 90.778 45.3702 88.7431 44.2114C86.7231 43.0176 84.19 43.125 82.2782 44.4854C80.4859 45.6755 79.9302 47.5312 79.7893 49.6608L91.5059 49.6922ZM190.616 37.5013C190.661 37.7078 190.692 37.9171 190.71 38.1277C190.71 44.6655 190.796 51.2111 190.631 57.7489C190.483 63.5194 186.835 67.5047 181.122 68.4208C177.979 69.0083 174.74 68.8256 171.683 67.8884C166.909 66.3224 164.341 62.7912 164.13 57.9603C163.841 51.1876 164.06 44.3993 164.06 37.5326C164.319 37.491 164.58 37.4622 164.842 37.4465H171.033C171.816 37.4465 172.035 37.7049 172.027 38.4644V56.825C172.027 58.8216 172.513 60.6302 174.375 61.6716C176.2 62.7466 178.459 62.7645 180.3 61.7186C182.108 60.7555 182.773 59.0486 182.773 57.0599V42.0582C182.783 41.3263 182.905 40.6002 183.133 39.905C183.5 38.5354 184.715 37.564 186.131 37.5091C187.587 37.4308 189.058 37.5013 190.616 37.5013ZM129.106 46.8343H121.67C121.358 46.7698 121.089 46.5726 120.934 46.2941C119.76 44.1487 117.804 43.4989 115.565 43.538C113.476 43.4713 111.55 44.6616 110.674 46.5603C109.557 48.9139 109.172 51.5489 109.57 54.1238C109.727 55.7854 110.134 57.414 110.775 58.9547C112.278 62.2432 117.53 63.2923 120.347 60.9982C120.773 60.6895 121.112 60.2772 121.334 59.8003C121.67 58.8842 122.273 58.7668 123.118 58.7903C125.169 58.8451 127.227 58.7903 129.434 58.7903C128.81 61.2812 127.475 63.5366 125.591 65.2811C122.046 68.5774 117.718 69.2351 113.17 68.5617C106.909 67.6378 102.831 63.3158 101.915 56.8877C101.355 53.2411 101.582 49.5168 102.581 45.9652C103.99 41.0951 107.191 38.0964 112.215 37.1568C116.645 36.3347 120.825 36.7418 124.582 39.5057C126.883 41.2674 128.808 44.3993 129.106 46.8343ZM131.336 28.5676C133.003 28.5676 134.545 28.4972 136.071 28.5676C137.879 28.6694 139.124 30.1336 139.202 32.138C139.265 33.5317 139.202 34.9332 139.202 36.3347V37.6031H143.961V39.952C143.961 41.5179 143.89 43.0369 143.961 44.5715C144.023 45.5894 143.64 45.8243 142.708 45.7695C141.566 45.699 140.415 45.7695 139.171 45.7695V67.9902C137.607 68.0811 136.039 68.0811 134.475 67.9902C132.847 67.7944 131.939 66.6121 131.54 65.0697C131.344 64.3626 131.237 63.6342 131.219 62.9009V29.4289C131.305 29.1548 131.32 28.92 131.336 28.5676ZM161.641 37.3134V45.5502L160.647 45.5972C159.81 45.5972 158.964 45.5972 158.135 45.6677C154.221 46.067 152.476 48.0166 152.453 51.9314V68.0137H144.375C144.375 67.63 144.329 67.2307 144.329 66.894C144.329 62.2432 144.219 57.5845 144.375 52.9415C144.422 50.7097 144.783 48.4956 145.448 46.3645C147.115 41.3065 151.044 38.7854 156.092 37.8615C157.884 37.5639 159.708 37.5013 161.641 37.3134Z" fill="#143257"/>
<path d="M241.812 42.8V68.3154L258.375 55.5577L241.812 42.8Z" fill="#0F99D6"/>
</svg>
