<svg width="311" height="128" viewBox="0 0 311 128" fill="none" xmlns="http://www.w3.org/2000/svg">
<path d="M236.798 89.8532H248.373V68.6201C248.373 63.7768 251.193 60.3493 255.348 60.3493C259.355 60.3493 261.432 63.1812 261.432 67.2047V89.8536H273.008V64.97C273.008 56.55 267.962 50.5896 259.8 50.5896C254.606 50.5896 250.97 52.8251 248.225 56.9226H248.002V51.7075H236.798V89.8532H236.798ZM214.092 50.664C201.997 50.664 193.91 59.3811 193.91 70.8548C193.91 82.2544 201.998 91.0459 214.092 91.0459C226.187 91.0459 234.275 82.2544 234.275 70.8548C234.275 59.3807 226.187 50.664 214.092 50.664ZM214.018 82.4774C208.526 82.4774 205.633 77.8587 205.633 70.8548C205.633 63.7768 208.526 59.2318 214.018 59.2318C219.509 59.2318 222.551 63.7764 222.551 70.8548C222.551 77.8587 219.509 82.4774 214.018 82.4774ZM160.964 89.8532H193.464V80.6898H175.063V80.4653L192.648 60.6471V51.7075H160.964V60.8709H178.772V61.0946L160.964 81.0616V89.8532ZM146.122 89.8532H157.772V51.7075H146.122V89.8532ZM119.113 89.8532H130.688V72.3454C130.688 64.3728 135.437 60.8709 142.709 61.8399H142.931V51.782C142.338 51.5582 141.67 51.4838 140.557 51.4838C136.031 51.4838 132.989 53.5696 130.391 58.0398H130.168V51.7075H119.113V89.8532ZM97.8174 82.5526C92.6973 82.5526 89.5811 79.1988 88.9871 74.0593H116.367C116.441 65.8626 114.289 59.3062 109.763 55.2087C106.573 52.2287 102.343 50.5892 97.0006 50.5892C85.5744 50.5892 77.6343 59.3062 77.6343 70.7055C77.6343 82.1788 85.2029 90.9703 97.7429 90.9703C102.492 90.9703 106.276 89.7039 109.392 87.5428C112.732 85.2344 115.106 81.8806 115.773 78.5284H104.643C103.531 81.0617 101.23 82.5526 97.8174 82.5526ZM97.2234 58.9336C101.304 58.9336 104.124 61.9892 104.569 66.459H89.0613C89.9522 61.9136 92.4003 58.9336 97.2234 58.9336ZM146.122 38.1464H157.772V48.503H146.122V38.1464Z" fill="#F50A23"/>
<path d="M64.08 89.3786L49.6766 51.7075H37.9912L52.3947 89.3786C52.504 89.6659 52.7783 89.854 53.0835 89.854H64.7688C64.4637 89.854 64.1893 89.6659 64.08 89.3786Z" fill="url(#paint0_radial_31_45)"/>
<path d="M53.7719 89.3786L68.1754 51.7075H79.8608L65.4573 89.3786C65.348 89.6659 65.0737 89.854 64.7685 89.854H53.0831C53.3887 89.854 53.663 89.6659 53.7719 89.3786Z" fill="#F50A23"/>
<defs>
<radialGradient id="paint0_radial_31_45" cx="0" cy="0" r="1" gradientUnits="userSpaceOnUse" gradientTransform="translate(62.3665 83.3051) rotate(-70.2224) scale(20.2309 21.8176)">
<stop stop-color="#F5FF1E"/>
<stop offset="0.257" stop-color="#F5FF1E"/>
<stop offset="0.2655" stop-color="#F5FA1E"/>
<stop offset="0.423" stop-color="#F5A620"/>
<stop offset="0.5621" stop-color="#F56321"/>
<stop offset="0.6779" stop-color="#F53322"/>
<stop offset="0.7657" stop-color="#F51523"/>
<stop offset="0.8155" stop-color="#F50A23"/>
</radialGradient>
</defs>
</svg>
