<svg width="320" height="130" viewBox="0 0 320 130" fill="none" xmlns="http://www.w3.org/2000/svg">
<path d="M88.3566 64.9193H92.5013V79.1833C92.5013 84.0278 94.4929 88.4954 103.805 88.4954C107.196 88.4954 111.018 88.0648 112.471 87.7956V75.9537C112.471 75.9537 110.749 76.0614 109.241 76.0076C106.496 76.0076 106.604 74.5004 106.604 73.5315V64.9193H112.848V52.7006H106.658V41.5585H92.5551V52.7006H88.3566V64.9193ZM24.5181 51.5164C35.7141 51.5164 44.0572 59.8595 44.0572 70.2481C44.0572 80.6905 35.7141 88.9798 24.5181 88.9798C13.3221 88.9798 4.979 80.6905 4.979 70.2481C4.979 59.8057 13.3221 51.5164 24.5181 51.5164ZM24.5181 64.2733C21.1809 64.2733 18.4895 66.9647 18.4895 70.3019C18.4895 73.6392 21.1809 76.3305 24.5181 76.3305C27.8554 76.3305 30.6005 73.6392 30.5467 70.3019C30.5467 66.9647 27.8554 64.2733 24.5181 64.2733ZM70.6476 51.5164C79.7444 51.5164 86.9033 59.3751 86.8498 70.2481C86.8498 81.1749 79.6905 89.0336 70.5938 89.0336C66.6106 89.0336 63.2734 87.7956 60.8512 85.1581V97H46.7486V52.7006H60.8512V53.2927C60.8512 54.3154 60.7973 55.1228 60.6897 55.6072C63.1119 52.8082 66.503 51.5164 70.6476 51.5164ZM66.6106 64.2733C63.2734 64.2733 60.582 66.9647 60.582 70.3019C60.582 73.6392 63.2734 76.3305 66.6106 76.3305C69.9479 76.3305 72.6392 73.6392 72.6392 70.3019C72.6392 66.9647 69.9479 64.2733 66.6106 64.2733ZM127.812 33C123.075 33 119.199 36.8755 119.199 41.6123C119.199 46.349 123.075 50.2246 127.812 50.2246C132.548 50.2246 136.424 46.349 136.424 41.6123C136.424 36.8755 132.602 33 127.812 33ZM116.67 64.9193H120.814V87.8495H134.917V52.7006H116.67V64.9193ZM220.663 71.6476C220.663 74.5004 218.671 75.4155 217.11 75.4155C215.549 75.4155 213.719 74.5004 213.719 71.6476V52.7006H199.617V73.4777C199.617 80.852 205.161 88.4415 217.164 88.4415C229.167 88.4415 234.712 80.7981 234.819 73.4777V52.7006H220.717L220.663 71.6476ZM282.456 52.1085C277.773 52.1085 273.951 54.1001 271.26 57.4373C269.268 54.1539 265.823 52.1085 261.41 52.1085C258.072 52.1085 254.627 53.6695 252.421 56.2532C252.421 56.2532 252.69 55.069 252.69 53.3465V52.7006H238.587V87.9033H252.69V66.3726C253.066 65.7267 254.52 64.4348 256.296 64.4348C258.18 64.4348 259.741 65.5114 259.741 68.0412V87.9033H273.844V66.3726C274.274 65.7267 275.674 64.4348 277.45 64.4348C279.334 64.4348 280.895 65.5114 280.895 68.0412V87.9033H295.051V63.8427C295.051 56.1993 288.754 52.1085 282.456 52.1085ZM183.146 52.1085C178.463 52.1085 174.641 54.1001 171.95 57.4373C169.958 54.1539 166.513 52.1085 162.099 52.1085C158.762 52.1085 155.317 53.6695 153.11 56.2532C153.11 56.2532 153.379 55.069 153.379 53.3465V52.7006H139.277V87.9033H153.379V66.3726C153.756 65.7267 155.209 64.4348 156.986 64.4348C158.87 64.4348 160.431 65.5114 160.431 68.0412V87.9033H174.533V66.3726C174.91 65.7267 176.363 64.4348 178.14 64.4348C180.024 64.4348 181.585 65.5114 181.585 68.0412V87.9033H195.688V63.8427C195.741 56.1993 189.443 52.1085 183.146 52.1085Z" fill="black"/>
<path d="M306.409 71.2708C301.672 71.2708 297.797 75.1463 297.797 79.8831C297.797 84.6198 301.672 88.4954 306.409 88.4954C311.146 88.4954 315.021 84.6198 315.021 79.8831C315.021 75.1463 311.146 71.2708 306.409 71.2708Z" fill="#F66608"/>
</svg>
