<svg width="207" height="84" viewBox="0 0 207 84" fill="none" xmlns="http://www.w3.org/2000/svg">
<path d="M94.5918 60.8374C93.1819 66.6273 88.151 70.9379 82.1189 71.0738L81.9005 71.0769H81.8254C75.6966 71.0407 70.561 66.6971 69.1341 60.8374C68.9914 60.2505 69.3577 59.5775 70.0471 59.9629C74.2469 62.4033 78.7589 63.0568 81.8608 63.0517C84.9628 63.0467 89.4722 62.4033 93.6746 59.9629C94.364 59.5775 94.731 60.2505 94.5918 60.8374ZM62.947 14.7597C63.2915 14.7597 63.5751 15.0202 63.6114 15.3548L63.6154 15.4275V69.3997C63.6154 69.5769 63.5452 69.7469 63.4199 69.8722C63.3124 69.9796 63.172 70.0466 63.0225 70.0634L62.947 70.0676H53.761C53.5836 70.0678 53.4134 69.9975 53.2879 69.8723C53.1803 69.7649 53.1131 69.6246 53.0961 69.4751L53.0918 69.3997V65.6473C50.0161 69.0059 45.8812 71.0533 41.2401 71.0533C31.325 71.0533 23.2875 61.7295 23.2875 50.2251C23.2875 38.7206 31.325 29.3968 41.2401 29.3968C45.7926 29.3968 49.8498 31.3631 52.906 34.6029L53.0918 34.8029V15.4275C53.0923 15.0832 53.3532 14.7999 53.6882 14.7636L53.761 14.7597H62.947ZM116.688 29.3918C123.054 29.3918 128.173 31.4425 131.977 34.2995C132.335 34.5665 132.453 35.0446 132.271 35.4435L132.23 35.5222L129.148 41.6416C129.002 41.8956 128.752 42.0717 128.463 42.1221C128.175 42.1724 127.879 42.0918 127.656 41.9022C125.138 39.7511 121.084 38.2223 116.77 38.2223C112.987 38.2223 110.521 39.4964 110.521 41.2512C110.521 47.4963 134.035 42.6561 134.035 58.3177C134.035 65.6279 127.869 71.0508 116.852 71.0508C110.272 71.0508 103.916 68.9629 99.7038 65.4255C99.3699 65.1437 99.2771 64.6725 99.4692 64.2885L99.5114 64.2129L103.007 58.3683C103.155 58.1291 103.397 57.964 103.674 57.9147C103.951 57.8655 104.235 57.9366 104.456 58.1103C107.542 60.5557 112.852 62.3265 117.346 62.3265C121.867 62.3265 124.005 60.7429 124.005 58.8734C124.005 52.0406 100.408 57.418 100.408 41.8803C100.408 35.2254 106.246 29.3918 116.688 29.3918ZM149.452 14.7597C149.797 14.7597 150.08 15.0203 150.117 15.3548L150.121 15.4275V34.7565C152.57 31.4316 156.304 29.3934 161.157 29.3934C169.844 29.3934 176.824 34.7671 176.963 46.7549L176.965 47.1202V69.3947C176.965 69.5718 176.895 69.7418 176.769 69.8671C176.662 69.9745 176.521 70.0415 176.372 70.0583L176.296 70.0625H167.11C166.933 70.0627 166.763 69.9925 166.637 69.8672C166.53 69.7598 166.463 69.6196 166.446 69.4701L166.441 69.3947L166.432 47.7619C166.432 40.9535 162.882 38.1801 158.372 38.1801C153.922 38.1801 150.228 41.0137 150.123 46.1053L150.121 46.3158V69.3955C150.121 69.7398 149.86 70.0232 149.525 70.0594L149.452 70.0634H140.265C139.921 70.0634 139.637 69.8029 139.601 69.4683L139.597 69.3955V15.4275C139.598 15.0835 139.858 14.7999 140.193 14.7636L140.265 14.7597H149.452ZM181.355 67.65V68.0379H180.604V69.995H180.138V68.0345H179.387V67.65H181.355ZM182.365 67.65L182.771 68.7968C182.823 68.9772 182.867 69.1501 182.926 69.3913H182.935C182.996 69.1763 183.047 68.9772 183.104 68.801L183.503 67.65H184.178L184.359 69.995H183.893L183.808 68.6155C183.8 68.4342 183.8 68.2099 183.791 67.9603H183.765C183.705 68.1669 183.636 68.4426 183.567 68.6585L183.145 69.9605H182.659L182.237 68.6239C182.194 68.4426 182.125 68.1669 182.073 67.9603H182.047C182.047 68.1753 182.039 68.3996 182.03 68.6155L181.946 69.995H181.498L181.667 67.65H182.365ZM43.4451 38.1362C38.1171 38.1362 33.7975 43.544 33.7975 50.2183C33.7975 56.8926 38.1171 62.3029 43.4451 62.3029C48.6926 62.3029 52.9602 57.0566 53.0891 50.5244L53.0918 50.3085V50.1315C53.0539 43.4993 48.7503 38.1362 43.4451 38.1362ZM91.9084 45.8579C90.7976 50.4176 86.845 53.814 82.1008 53.9395L81.8878 53.943H81.8279C76.9893 53.9151 72.9347 50.4848 71.8073 45.8579C71.6951 45.3949 71.9845 44.8637 72.5288 45.1681C75.8468 47.0949 79.4078 47.611 81.8583 47.6068C84.3088 47.6026 87.869 47.0949 91.1869 45.1681C91.732 44.8637 92.0215 45.3949 91.9084 45.8579ZM89.0495 33.0523C88.2597 36.3063 85.4447 38.7338 82.0619 38.8386L81.8769 38.842H81.8338C78.3741 38.8218 75.4688 36.3654 74.6612 33.0523C74.581 32.7209 74.7878 32.3398 75.1776 32.5582C77.5556 33.9377 80.1048 34.3079 81.8591 34.3045C83.6135 34.3012 86.1636 33.9377 88.5398 32.5582C88.9297 32.3398 89.1364 32.7209 89.0495 33.0523ZM81.7688 12.9231C85.2036 12.9231 87.9879 15.7055 87.9879 19.1378C87.9879 22.5702 85.2036 25.3526 81.7688 25.3526C78.4137 25.3526 75.5506 22.5724 75.5506 19.1378C75.5506 15.7058 78.4137 12.9231 81.7688 12.9231Z" fill="#F01446"/>
</svg>
