<svg width="311" height="53" viewBox="0 0 311 53" fill="none" xmlns="http://www.w3.org/2000/svg">
<rect width="53" height="53" fill="white"/>
<path d="M35.4688 24.5312C39.4896 25.4688 42.3125 26.6042 43.9375 27.9375C46.2708 29.8333 47.4375 32.2917 47.4375 35.3125C47.4375 38.5 46.1562 41.1354 43.5938 43.2188C40.4479 45.7396 35.875 47 29.875 47H8.34375V45.8438C10.3021 45.8438 11.625 45.6667 12.3125 45.3125C13.0208 44.9375 13.5104 44.4583 13.7812 43.875C14.0729 43.2917 14.2188 41.8542 14.2188 39.5625V12.0625C14.2188 9.77083 14.0729 8.33333 13.7812 7.75C13.5104 7.14583 13.0208 6.66667 12.3125 6.3125C11.6042 5.95833 10.2812 5.78125 8.34375 5.78125V4.625H28.6562C33.5104 4.625 36.9479 5.0625 38.9688 5.9375C40.9896 6.79167 42.5833 8.08333 43.75 9.8125C44.9167 11.5208 45.5 13.3438 45.5 15.2812C45.5 17.3229 44.7604 19.1458 43.2812 20.75C41.8021 22.3333 39.1979 23.5938 35.4688 24.5312ZM24.0938 23.6875C27.0521 23.6875 29.2292 23.3542 30.625 22.6875C32.0417 22.0208 33.125 21.0833 33.875 19.875C34.625 18.6667 35 17.125 35 15.25C35 13.375 34.625 11.8438 33.875 10.6562C33.1458 9.44792 32.0938 8.53125 30.7188 7.90625C29.3438 7.28125 27.1354 6.97917 24.0938 7V23.6875ZM24.0938 26.125V39.7188L24.0625 41.2812C24.0625 42.4062 24.3438 43.2604 24.9062 43.8438C25.4896 44.4062 26.3438 44.6875 27.4688 44.6875C29.1354 44.6875 30.6667 44.3229 32.0625 43.5938C33.4792 42.8438 34.5625 41.7708 35.3125 40.375C36.0625 38.9583 36.4375 37.3854 36.4375 35.6562C36.4375 33.6771 35.9792 31.9062 35.0625 30.3438C34.1458 28.7604 32.8854 27.6562 31.2812 27.0312C29.6771 26.4062 27.2812 26.1042 24.0938 26.125Z" fill="#BB0025"/>
<path d="M67.8088 17.7812V24.4062C69.7463 21.3854 71.4442 19.3854 72.9025 18.4062C74.3608 17.4062 75.7671 16.9062 77.1213 16.9062C78.2879 16.9062 79.215 17.2708 79.9025 18C80.6108 18.7083 80.965 19.7188 80.965 21.0312C80.965 22.4271 80.6213 23.5104 79.9338 24.2812C79.2671 25.0521 78.4546 25.4375 77.4963 25.4375C76.3921 25.4375 75.4338 25.0833 74.6213 24.375C73.8088 23.6667 73.3296 23.2708 73.1838 23.1875C72.9754 23.0625 72.7358 23 72.465 23C71.8608 23 71.2879 23.2292 70.7463 23.6875C69.8921 24.3958 69.2463 25.4062 68.8088 26.7188C68.1421 28.7396 67.8088 30.9688 67.8088 33.4062V40.125L67.84 41.875C67.84 43.0625 67.9129 43.8229 68.0588 44.1562C68.3088 44.7188 68.6733 45.1354 69.1525 45.4062C69.6525 45.6562 70.4858 45.8125 71.6525 45.875V47H55.8713V45.875C57.1421 45.7708 57.9963 45.4271 58.4338 44.8438C58.8921 44.2396 59.1213 42.6667 59.1213 40.125V23.9688C59.1213 22.3021 59.0379 21.2396 58.8713 20.7812C58.6629 20.1979 58.3608 19.7708 57.965 19.5C57.5692 19.2292 56.8713 19.0417 55.8713 18.9375V17.7812H67.8088ZM100.555 16.9062C103.097 16.9062 105.461 17.5625 107.649 18.875C109.836 20.1875 111.493 22.0521 112.618 24.4688C113.763 26.8854 114.336 29.5312 114.336 32.4062C114.336 36.5521 113.284 40.0208 111.18 42.8125C108.638 46.1875 105.128 47.875 100.649 47.875C96.2529 47.875 92.8675 46.3333 90.4925 43.25C88.1175 40.1667 86.93 36.5938 86.93 32.5312C86.93 28.3438 88.1383 24.6979 90.555 21.5938C92.9925 18.4688 96.3258 16.9062 100.555 16.9062ZM100.68 19.125C99.6175 19.125 98.7008 19.5312 97.93 20.3438C97.18 21.1354 96.68 22.7188 96.43 25.0938C96.2008 27.4479 96.0863 30.7292 96.0863 34.9375C96.0863 37.1667 96.2321 39.25 96.5238 41.1875C96.7529 42.6667 97.2425 43.7917 97.9925 44.5625C98.7425 45.3333 99.5967 45.7188 100.555 45.7188C101.493 45.7188 102.274 45.4583 102.899 44.9375C103.711 44.2292 104.253 43.2396 104.524 41.9688C104.94 39.9896 105.149 35.9896 105.149 29.9688C105.149 26.4271 104.951 24 104.555 22.6875C104.159 21.3542 103.576 20.3854 102.805 19.7812C102.263 19.3438 101.555 19.125 100.68 19.125ZM138.739 42.6875C135.176 45.8333 131.978 47.4062 129.145 47.4062C127.478 47.4062 126.093 46.8646 124.989 45.7812C123.885 44.6771 123.332 43.3021 123.332 41.6562C123.332 39.4271 124.291 37.4271 126.207 35.6562C128.124 33.8646 132.301 31.4896 138.739 28.5312V25.5938C138.739 23.3854 138.614 22 138.364 21.4375C138.135 20.8542 137.687 20.3542 137.02 19.9375C136.353 19.5 135.603 19.2812 134.77 19.2812C133.416 19.2812 132.301 19.5833 131.426 20.1875C130.885 20.5625 130.614 21 130.614 21.5C130.614 21.9375 130.905 22.4792 131.489 23.125C132.28 24.0208 132.676 24.8854 132.676 25.7188C132.676 26.7396 132.291 27.6146 131.52 28.3438C130.77 29.0521 129.78 29.4062 128.551 29.4062C127.239 29.4062 126.135 29.0104 125.239 28.2188C124.364 27.4271 123.926 26.5 123.926 25.4375C123.926 23.9375 124.52 22.5104 125.707 21.1562C126.895 19.7812 128.551 18.7292 130.676 18C132.801 17.2708 135.01 16.9062 137.301 16.9062C140.072 16.9062 142.26 17.5 143.864 18.6875C145.489 19.8542 146.541 21.125 147.02 22.5C147.312 23.375 147.457 25.3854 147.457 28.5312V39.875C147.457 41.2083 147.51 42.0521 147.614 42.4062C147.718 42.7396 147.874 42.9896 148.082 43.1562C148.291 43.3229 148.53 43.4062 148.801 43.4062C149.343 43.4062 149.895 43.0208 150.457 42.25L151.395 43C150.353 44.5417 149.27 45.6667 148.145 46.375C147.041 47.0625 145.78 47.4062 144.364 47.4062C142.697 47.4062 141.395 47.0208 140.457 46.25C139.52 45.4583 138.947 44.2708 138.739 42.6875ZM138.739 40.4062V30.625C136.218 32.1042 134.343 33.6875 133.114 35.375C132.301 36.5 131.895 37.6354 131.895 38.7812C131.895 39.7396 132.239 40.5833 132.926 41.3125C133.447 41.875 134.176 42.1562 135.114 42.1562C136.155 42.1562 137.364 41.5729 138.739 40.4062ZM186.86 4.625V38.25C186.86 40.5208 186.923 41.8646 187.048 42.2812C187.214 42.9688 187.527 43.4792 187.985 43.8125C188.464 44.1458 189.287 44.3542 190.454 44.4375V45.4688L178.11 47.875V43.25C176.631 45.0417 175.308 46.2604 174.141 46.9062C172.995 47.5521 171.693 47.875 170.235 47.875C166.506 47.875 163.558 46.2083 161.391 42.875C159.641 40.1667 158.766 36.8438 158.766 32.9062C158.766 29.7604 159.308 26.9479 160.391 24.4688C161.475 21.9688 162.954 20.0833 164.829 18.8125C166.725 17.5417 168.756 16.9062 170.923 16.9062C172.318 16.9062 173.558 17.1771 174.641 17.7188C175.725 18.2604 176.881 19.2083 178.11 20.5625V11.75C178.11 9.52083 178.016 8.17708 177.829 7.71875C177.579 7.11458 177.204 6.66667 176.704 6.375C176.204 6.08333 175.266 5.9375 173.891 5.9375V4.625H186.86ZM178.11 24.4375C176.568 21.4792 174.683 20 172.454 20C171.683 20 171.048 20.2083 170.548 20.625C169.777 21.2708 169.141 22.4062 168.641 24.0312C168.162 25.6562 167.923 28.1458 167.923 31.5C167.923 35.1875 168.193 37.9167 168.735 39.6875C169.277 41.4583 170.016 42.7396 170.954 43.5312C171.433 43.9271 172.089 44.125 172.923 44.125C174.756 44.125 176.485 42.6875 178.11 39.8125V24.4375ZM204.95 3.625C206.304 3.625 207.45 4.10417 208.387 5.0625C209.325 6 209.794 7.13542 209.794 8.46875C209.794 9.80208 209.315 10.9375 208.356 11.875C207.419 12.8125 206.283 13.2812 204.95 13.2812C203.617 13.2812 202.481 12.8125 201.544 11.875C200.606 10.9375 200.137 9.80208 200.137 8.46875C200.137 7.13542 200.606 6 201.544 5.0625C202.481 4.10417 203.617 3.625 204.95 3.625ZM209.325 17.7812V40.9375C209.325 43 209.565 44.3229 210.044 44.9062C210.523 45.4688 211.46 45.7917 212.856 45.875V47H197.075V45.875C198.367 45.8333 199.325 45.4583 199.95 44.75C200.367 44.2708 200.575 43 200.575 40.9375V23.875C200.575 21.8125 200.335 20.5 199.856 19.9375C199.377 19.3542 198.45 19.0208 197.075 18.9375V17.7812H209.325ZM247.79 17.7812V40.6562C247.79 42.8854 247.998 44.2812 248.415 44.8438C248.832 45.3854 249.675 45.7292 250.946 45.875V47H239.04V43.0938C237.644 44.7604 236.248 45.9792 234.852 46.75C233.457 47.5 231.894 47.875 230.165 47.875C228.519 47.875 227.05 47.375 225.759 46.375C224.488 45.3542 223.634 44.1667 223.196 42.8125C222.759 41.4583 222.54 39.0938 222.54 35.7188V24.125C222.54 21.9167 222.332 20.5417 221.915 20C221.519 19.4583 220.675 19.1042 219.384 18.9375V17.7812H231.29V37.75C231.29 39.8333 231.384 41.1771 231.571 41.7812C231.78 42.3854 232.092 42.8438 232.509 43.1562C232.946 43.4688 233.446 43.625 234.009 43.625C234.759 43.625 235.436 43.4271 236.04 43.0312C236.873 42.4896 237.873 41.3958 239.04 39.75V24.125C239.04 21.9167 238.832 20.5417 238.415 20C238.019 19.4583 237.175 19.1042 235.884 18.9375V17.7812H247.79ZM271.161 17.7812V21.625C272.765 19.875 274.245 18.6562 275.599 17.9688C276.974 17.2604 278.474 16.9062 280.099 16.9062C281.974 16.9062 283.547 17.3438 284.818 18.2188C286.088 19.0938 287.068 20.4271 287.755 22.2188C289.422 20.3438 291.015 18.9896 292.536 18.1562C294.078 17.3229 295.682 16.9062 297.349 16.9062C299.37 16.9062 300.974 17.375 302.161 18.3125C303.37 19.2292 304.203 20.4062 304.661 21.8438C305.14 23.2604 305.38 25.5312 305.38 28.6562V40.625C305.38 42.875 305.578 44.2708 305.974 44.8125C306.39 45.3542 307.245 45.7083 308.536 45.875V47H293.443V45.875C294.63 45.7708 295.505 45.3125 296.068 44.5C296.443 43.9375 296.63 42.6458 296.63 40.625V28.0625C296.63 25.4583 296.526 23.8021 296.318 23.0938C296.109 22.3854 295.776 21.8646 295.318 21.5312C294.88 21.1771 294.359 21 293.755 21C292.859 21 291.953 21.3333 291.036 22C290.12 22.6458 289.193 23.625 288.255 24.9375V40.625C288.255 42.7292 288.432 44.0521 288.786 44.5938C289.265 45.3646 290.182 45.7917 291.536 45.875V47H276.411V45.875C277.224 45.8333 277.859 45.6354 278.318 45.2812C278.797 44.9062 279.109 44.4688 279.255 43.9688C279.422 43.4479 279.505 42.3333 279.505 40.625V28.0625C279.505 25.4167 279.401 23.7604 279.193 23.0938C278.984 22.4271 278.63 21.9062 278.13 21.5312C277.651 21.1562 277.13 20.9688 276.568 20.9688C275.734 20.9688 274.974 21.1875 274.286 21.625C273.307 22.2708 272.265 23.375 271.161 24.9375V40.625C271.161 42.6875 271.359 44.0521 271.755 44.7188C272.172 45.3646 273.026 45.75 274.318 45.875V47H259.255V45.875C260.484 45.75 261.359 45.3542 261.88 44.6875C262.234 44.2292 262.411 42.875 262.411 40.625V24.125C262.411 21.9167 262.203 20.5417 261.786 20C261.39 19.4583 260.547 19.1042 259.255 18.9375V17.7812H271.161Z" fill="white"/>
</svg>
