<svg width="49" height="55" viewBox="0 0 49 55" fill="none" xmlns="http://www.w3.org/2000/svg">
<path d="M29.2201 14.0654V21.2279C29.2207 21.6523 29.3866 22.0591 29.6813 22.3592C29.976 22.6592 30.3756 22.828 30.7923 22.8285H43.256C43.6726 22.8278 44.072 22.659 44.3666 22.359C44.6612 22.0589 44.827 21.6522 44.8276 21.2279V14.0654C44.827 13.6411 44.6612 13.2343 44.3666 12.9343C44.072 12.6342 43.6726 12.4654 43.256 12.4648H30.7923C30.3756 12.4653 29.976 12.6341 29.6813 12.9341C29.3866 13.2341 29.2207 13.641 29.2201 14.0654ZM44.2025 21.2278C44.2023 21.4833 44.1024 21.7284 43.925 21.9091C43.7475 22.0898 43.5069 22.1915 43.256 22.1918H30.7923C30.5413 22.1915 30.3008 22.0898 30.1233 21.9091C29.9458 21.7284 29.846 21.4834 29.8457 21.2279V14.0654C29.8458 13.8697 29.9047 13.6787 30.0145 13.518L35.752 17.6381C36.1246 17.905 36.5691 18.0482 37.0246 18.0482C37.4801 18.0482 37.9246 17.905 38.2972 17.6381L44.0347 13.518C44.1446 13.6786 44.2035 13.8696 44.2035 14.0654L44.2025 21.2278ZM35.7647 0H26.6202C26.2035 0.000597082 25.804 0.169496 25.5094 0.469653C25.2147 0.769809 25.049 1.17672 25.0486 1.60113V7.3607C25.049 7.78511 25.2147 8.19202 25.5094 8.49218C25.804 8.79233 26.2035 8.96123 26.6202 8.96183H35.7654C36.1821 8.96135 36.5816 8.79257 36.8764 8.49253C37.1711 8.19248 37.3369 7.78564 37.3376 7.36123V1.6006C37.3369 1.17608 37.171 0.769145 36.8761 0.469077C36.5813 0.169009 36.1816 0.000312479 35.7647 0ZM36.7113 7.36102C36.711 7.6166 36.6112 7.86164 36.4338 8.04236C36.2563 8.22309 36.0157 8.32475 35.7647 8.32503H26.6202C26.3693 8.32475 26.1287 8.22309 25.9512 8.04236C25.7737 7.86164 25.6739 7.6166 25.6736 7.36102V1.6006C25.674 1.34505 25.7738 1.10007 25.9513 0.91939C26.1287 0.738712 26.3693 0.637085 26.6202 0.636801H35.7654C36.0163 0.637085 36.2569 0.738741 36.4344 0.919466C36.6119 1.10019 36.7117 1.34523 36.712 1.60081L36.7113 7.36102ZM32.9611 4.01105L29.9585 2.24513C29.8775 2.19751 29.7857 2.17244 29.6922 2.17243C29.5987 2.17243 29.5068 2.19749 29.4258 2.2451C29.3449 2.29271 29.2776 2.36119 29.2309 2.44366C29.1841 2.52613 29.1595 2.61967 29.1596 2.71489V6.24619C29.1592 6.34155 29.1836 6.43531 29.2302 6.51799C29.2769 6.60067 29.3442 6.66932 29.4253 6.717C29.5063 6.76469 29.5984 6.7897 29.692 6.78951C29.7856 6.78933 29.8776 6.76395 29.9585 6.71595L32.9611 4.95046C33.0421 4.90288 33.1093 4.83442 33.1561 4.75196C33.2028 4.66951 33.2275 4.57597 33.2275 4.48075C33.2275 4.38554 33.2028 4.292 33.1561 4.20954C33.1093 4.12709 33.0421 4.05863 32.9611 4.01105ZM47.4283 26.4283H37.2737C36.8571 26.4289 36.4577 26.5977 36.1631 26.8978C35.8684 27.1978 35.7027 27.6046 35.7021 28.0289V33.692C35.7027 34.1163 35.8684 34.5231 36.1631 34.8231C36.4577 35.1232 36.8571 35.292 37.2737 35.2926H47.4283C47.845 35.292 48.2444 35.1232 48.539 34.8231C48.8336 34.5231 48.9994 34.1163 49 33.692V28.0293C48.9995 27.6049 48.8338 27.198 48.5392 26.8979C48.2445 26.5978 47.8451 26.4289 47.4283 26.4283ZM48.3749 33.6924C48.3746 33.948 48.2748 34.193 48.0974 34.3737C47.9199 34.5544 47.6793 34.6561 47.4283 34.6563H37.2737C37.0228 34.656 36.7822 34.5544 36.6048 34.3737C36.4273 34.193 36.3275 33.948 36.3272 33.6924V28.0293C36.3275 27.7737 36.4273 27.5287 36.6047 27.348C36.7822 27.1673 37.0228 27.0656 37.2737 27.0653H47.4283C47.6793 27.0656 47.9199 27.1673 48.0974 27.348C48.2748 27.5287 48.3746 27.7737 48.3749 28.0293V33.6924ZM46.1934 29.5326C46.1934 29.6171 46.1604 29.6981 46.1018 29.7578C46.0431 29.8175 45.9636 29.8511 45.8806 29.8511H38.822C38.739 29.8511 38.6595 29.8175 38.6008 29.7578C38.5422 29.6981 38.5092 29.6171 38.5092 29.5326C38.5092 29.4481 38.5422 29.3671 38.6008 29.3074C38.6595 29.2476 38.739 29.2141 38.822 29.2141H45.8809C45.9638 29.2141 46.0433 29.2477 46.1019 29.3075C46.1605 29.3672 46.1934 29.4482 46.1934 29.5326ZM46.1934 32.1892C46.1934 32.2736 46.1604 32.3546 46.1018 32.4144C46.0431 32.4741 45.9636 32.5077 45.8806 32.5077H38.822C38.739 32.5077 38.6595 32.4741 38.6008 32.4144C38.5422 32.3546 38.5092 32.2736 38.5092 32.1892C38.5092 32.1047 38.5422 32.0237 38.6008 31.9639C38.6595 31.9042 38.739 31.8706 38.822 31.8706H45.8809C45.9638 31.8707 46.0433 31.9043 46.1019 31.964C46.1605 32.0237 46.1934 32.1047 46.1934 32.1892ZM19.9472 11.5232C19.7899 11.2123 19.5558 10.9485 19.2679 10.7579C18.9801 10.5672 18.6484 10.4562 18.3055 10.4358C17.9627 10.4154 17.6206 10.4863 17.3129 10.6416C17.0052 10.7969 16.7425 11.0311 16.5508 11.3213L8.10494 24.0963L1.07087 27.7887C0.604948 28.0333 0.25352 28.4564 0.0938865 28.9649C-0.0657471 29.4734 -0.0205115 30.0256 0.219643 30.5001L5.30971 40.5575C5.42836 40.7927 5.59141 41.0018 5.78953 41.1727C5.98765 41.3436 6.21694 41.4731 6.46427 41.5536C6.71159 41.6342 6.97209 41.6642 7.23083 41.642C7.48958 41.6199 7.74149 41.546 7.97214 41.4245L9.97479 40.3732L16.8256 53.9096C17.0659 54.3839 17.4814 54.7418 17.9806 54.9043C18.4799 55.0669 19.0221 55.021 19.4881 54.7766L21.3551 53.7965C21.8206 53.5515 22.1717 53.1284 22.3313 52.6201C22.4908 52.1118 22.4459 51.5597 22.2063 51.0851L15.4545 37.7442L30.1233 38.1387C30.1415 38.1387 30.1594 38.1395 30.1776 38.1395C30.5163 38.1391 30.8493 38.0501 31.1446 37.8809C31.4399 37.7117 31.6875 37.468 31.8637 37.1733C32.0398 36.8786 32.1387 36.5428 32.1507 36.198C32.1627 35.8531 32.0875 35.511 31.9323 35.2043L19.9472 11.5232ZM7.68544 40.8582C7.36697 41.0253 6.99634 41.0568 6.65507 40.9457C6.31381 40.8345 6.02986 40.5899 5.86569 40.2656L0.77563 30.2082C0.611506 29.8838 0.580623 29.5063 0.689777 29.1588C0.79893 28.8112 1.03918 28.5221 1.35767 28.3549L8.185 24.7716L14.513 37.2749L7.68544 40.8582Z" fill="#BB0025"/>
</svg>
