<svg width="68" height="68" viewBox="0 0 68 68" fill="none" xmlns="http://www.w3.org/2000/svg">
<path d="M60.2084 48.5208C60.2084 40.8245 56.9352 33.8927 51.705 29.0416M7.08337 48.5208C7.08337 33.8507 18.9758 21.9583 33.6459 21.9583C34.7246 21.9583 35.7883 22.0226 36.8334 22.1475" stroke="#BB0025" stroke-width="5" stroke-linecap="round"/>
<path d="M60.2084 48.5208C60.2084 40.8245 56.9352 33.8927 51.705 29.0416M7.08337 48.5208C7.08337 33.8507 18.9758 21.9583 33.6459 21.9583C34.7246 21.9583 35.7883 22.0226 36.8334 22.1475" stroke="#BB0025" stroke-width="5" stroke-linecap="round"/>
<path d="M39.8801 46.155C39.4762 47.3462 38.7462 48.4002 37.773 49.1969C33.4169 52.7631 26.9651 49.0382 27.8755 43.4826C28.0789 42.2414 28.6266 41.0822 29.4563 40.1369L47.42 19.67C47.9311 19.0878 48.8719 19.631 48.6232 20.3647L39.8801 46.155Z" stroke="#BB0025" stroke-width="5"/>
</svg>
