<svg width="46" height="32" viewBox="0 0 46 32" fill="none" xmlns="http://www.w3.org/2000/svg">
<path d="M2.4954 11.9822C7.5644 6.18008 14.9711 2.85256 22.8156 2.85256C30.6616 2.85256 38.0683 6.1815 43.1359 11.9836C43.2584 12.1254 43.4079 12.2414 43.5756 12.3251C43.7433 12.4088 43.9259 12.4584 44.1129 12.4711C44.2998 12.4839 44.4875 12.4594 44.6649 12.3993C44.8424 12.3391 45.0062 12.2444 45.1469 12.1205C45.4315 11.8719 45.6058 11.5204 45.6315 11.1433C45.6572 10.7663 45.5321 10.3944 45.2838 10.1095C39.6743 3.68408 31.486 0 22.8156 0C14.1467 0 5.95841 3.68266 0.347418 10.1052C0.100834 10.3904 -0.0228235 10.7616 0.00347832 11.1376C0.0297801 11.5137 0.203901 11.8641 0.487778 12.1121C0.771654 12.3602 1.1422 12.4858 1.5184 12.4614C1.8946 12.4371 2.24586 12.2648 2.4954 11.9822Z" fill="#BB0025"/>
<path d="M37.2267 17.6377C37.3445 17.7834 37.49 17.9044 37.6548 17.9936C37.8195 18.0829 38.0003 18.1386 38.1867 18.1577C38.3731 18.1768 38.5614 18.1588 38.7408 18.1048C38.9202 18.0508 39.0872 17.9619 39.2321 17.8431C39.5253 17.6045 39.7117 17.2592 39.7505 16.8832C39.7893 16.5072 39.6772 16.1312 39.4389 15.8377C35.3883 10.8586 29.328 8.00317 22.8156 8.00317C16.3046 8.00317 10.2458 10.8586 6.19229 15.8349C6.074 15.9801 5.98549 16.1473 5.9318 16.3267C5.87811 16.5062 5.86029 16.6945 5.87936 16.8808C5.91788 17.2572 6.10432 17.6028 6.39767 17.8417C6.69102 18.0805 7.06725 18.1931 7.4436 18.1546C7.81994 18.1161 8.16557 17.9296 8.40445 17.6363C11.9131 13.3275 17.1675 10.8543 22.8156 10.8543C28.4665 10.8557 33.7195 13.3275 37.2267 17.6377Z" fill="#BB0025"/>
<path d="M31.1749 23.1627C31.4002 23.4504 31.7271 23.641 32.0885 23.6951C32.4499 23.7493 32.8184 23.6629 33.1181 23.4538C33.4178 23.2447 33.626 22.9287 33.6999 22.5708C33.7738 22.2129 33.7078 21.8403 33.5155 21.5296C31.1008 18.0694 27.1015 16.0042 22.8155 16.0042C18.4653 16.0042 14.4332 18.1179 12.0271 21.6579C11.8272 21.9711 11.7573 22.3498 11.8321 22.7137C11.907 23.0776 12.1207 23.398 12.4279 23.6068C12.7352 23.8156 13.1117 23.8965 13.4776 23.8322C13.8435 23.7679 14.17 23.5636 14.3876 23.2625C16.2617 20.5026 19.4124 18.8567 22.8169 18.8567C26.1687 18.8567 29.2951 20.467 31.1749 23.1627Z" fill="#BB0025"/>
<path d="M22.8157 31.3784C24.3911 31.3784 25.6683 30.1211 25.6683 28.5701C25.6683 27.0191 24.3911 25.7617 22.8157 25.7617C21.2403 25.7617 19.9631 27.0191 19.9631 28.5701C19.9631 30.1211 21.2403 31.3784 22.8157 31.3784Z" fill="#BB0025"/>
</svg>
