<svg width="219" height="194" viewBox="0 0 219 194" fill="none" xmlns="http://www.w3.org/2000/svg">
<mask id="path-1-outside-1_117_1016" maskUnits="userSpaceOnUse" x="0" y="0" width="219" height="194" fill="black">
<rect fill="white" width="219" height="194"/>
<path d="M100.005 65.2283C100.806 65.659 101.707 65.8625 102.614 65.817C103.52 65.7715 104.397 65.4787 105.151 64.97L127.721 49.7716C128.405 49.3112 128.965 48.6886 129.353 47.9587C129.74 47.2289 129.943 46.4143 129.943 45.587C129.943 44.7597 129.74 43.9451 129.353 43.2152C128.965 42.4854 128.405 41.8628 127.721 41.4024L105.15 26.2039C104.396 25.6964 103.52 25.4042 102.613 25.3588C101.707 25.3134 100.806 25.5164 100.005 25.946C99.2051 26.3757 98.5359 27.016 98.0692 27.7984C97.6026 28.5808 97.3561 29.476 97.3561 30.3883V60.7857C97.355 61.6982 97.6011 62.5938 98.0677 63.3764C98.5344 64.1591 99.2041 64.7992 100.005 65.2283H100.005ZM103.713 32.9301L122.509 45.5868L103.713 58.2438V32.9301ZM212.702 159.33H205.285V43.1928C205.28 38.9555 203.604 34.8932 200.625 31.8969C197.645 28.9007 193.605 27.2154 189.392 27.2106H149.896C146.382 19.399 140.704 12.7717 133.54 8.12295C126.376 3.47418 118.031 1.00108 109.506 1C100.98 0.998921 92.6344 3.4699 85.4695 8.11686C78.3046 12.7638 72.6241 19.3896 69.1088 27.2004L29.6084 27.211C25.3946 27.2158 21.3548 28.9011 18.3752 31.8974C15.3956 34.8936 13.7196 38.956 13.7148 43.1933V159.331H6.29785C4.89326 159.332 3.54664 159.894 2.55344 160.893C1.56024 161.892 1.00157 163.246 1 164.658L1 177.018C1.00471 181.255 2.68072 185.317 5.66032 188.314C8.63992 191.31 12.6798 192.995 16.8936 193H202.106C206.32 192.995 210.36 191.31 213.34 188.314C216.319 185.317 217.995 181.255 218 177.018V164.658C217.998 163.246 217.44 161.892 216.447 160.893C215.453 159.894 214.107 159.332 212.702 159.331V159.33ZM109.5 7.39308C117.012 7.39308 124.355 9.63309 130.602 13.8299C136.848 18.0266 141.716 23.9916 144.591 30.9706C147.465 37.9495 148.218 45.629 146.752 53.0378C145.286 60.4467 141.669 67.2521 136.357 72.5936C131.046 77.9351 124.278 81.5728 116.91 83.0465C109.542 84.5203 101.906 83.764 94.9653 80.8733C88.025 77.9825 82.093 73.0872 77.9195 66.8064C73.746 60.5255 71.5183 53.1412 71.5182 45.5872C71.5295 35.4611 75.5348 25.7529 82.6553 18.5926C89.7758 11.4323 99.43 7.40459 109.5 7.39308ZM109.5 90.1742C120.383 90.1603 130.883 86.1273 139.004 78.8414C147.125 71.5554 152.302 61.5238 153.551 50.6521H181.975V142.283H37.0254V50.6521H65.4486C66.6984 61.5237 71.8755 71.5552 79.9964 78.8411C88.1174 86.127 98.6167 90.1599 109.5 90.1738V90.1742ZM20.0723 43.1933C20.0752 40.6508 21.0809 38.2133 22.8689 36.4155C24.6568 34.6178 27.0809 33.6066 29.6092 33.6039L66.7917 33.5937C65.8262 37.0697 65.2856 40.6512 65.182 44.2587H35.9658C34.5612 44.2603 33.2146 44.8221 32.2214 45.8209C31.2282 46.8196 30.6695 48.1737 30.668 49.5862V143.349C30.6695 144.761 31.2282 146.115 32.2214 147.114C33.2146 148.113 34.5612 148.674 35.9658 148.676H183.034C184.439 148.674 185.785 148.113 186.779 147.114C187.772 146.115 188.33 144.761 188.332 143.349V49.5862C188.33 48.1737 187.772 46.8196 186.779 45.8209C185.785 44.8221 184.439 44.2603 183.034 44.2587H153.818C153.714 40.6547 153.175 37.0768 152.211 33.6039H189.392C191.92 33.6068 194.344 34.618 196.132 36.4157C197.919 38.2134 198.925 40.6509 198.928 43.1933V159.331H20.0723V43.1933ZM128.451 165.724L125.735 171.915C125.486 172.482 125.078 172.964 124.562 173.302C124.046 173.641 123.443 173.821 122.826 173.821H96.1736C95.5572 173.821 94.9541 173.641 94.4377 173.302C93.9213 172.964 93.5138 172.482 93.2648 171.915L90.5485 165.724H128.451ZM211.643 177.018C211.64 179.56 210.634 181.997 208.846 183.795C207.059 185.593 204.635 186.604 202.106 186.607H16.8936C14.3653 186.604 11.9415 185.593 10.1537 183.795C8.36597 181.997 7.36034 179.56 7.35742 177.018V165.724H83.5999L87.4482 174.496C88.1951 176.196 89.4174 177.642 90.9665 178.658C92.5155 179.673 94.3246 180.214 96.1736 180.214H122.826C124.675 180.214 126.484 179.673 128.033 178.658C129.582 177.642 130.804 176.196 131.551 174.496L135.4 165.724H211.643V177.018ZM49.7402 124.17C49.7402 125.018 50.0751 125.831 50.6713 126.43C51.2674 127.03 52.0759 127.366 52.9189 127.366H73.0296C73.7348 130.111 75.3267 132.542 77.5554 134.277C79.784 136.013 82.523 136.955 85.3418 136.955C88.1606 136.955 90.8996 136.013 93.1282 134.277C95.3568 132.542 96.9488 130.111 97.654 127.366H166.081C166.924 127.366 167.733 127.03 168.329 126.43C168.925 125.831 169.26 125.018 169.26 124.17C169.26 123.322 168.925 122.509 168.329 121.91C167.733 121.31 166.924 120.973 166.081 120.973H97.654C96.9488 118.229 95.3568 115.798 93.1282 114.062C90.8996 112.327 88.1606 111.385 85.3418 111.385C82.523 111.385 79.784 112.327 77.5554 114.062C75.3267 115.798 73.7348 118.229 73.0296 120.973H52.9189C52.0759 120.973 51.2674 121.31 50.6713 121.91C50.0751 122.509 49.7402 123.322 49.7402 124.17ZM85.3418 117.777C86.5992 117.777 87.8283 118.152 88.8738 118.854C89.9193 119.557 90.7341 120.555 91.2153 121.723C91.6965 122.892 91.8224 124.177 91.5771 125.417C91.3318 126.657 90.7263 127.796 89.8372 128.69C88.9481 129.584 87.8153 130.193 86.5821 130.44C85.3489 130.687 84.0706 130.56 82.9089 130.076C81.7473 129.592 80.7544 128.773 80.0558 127.722C79.3572 126.67 78.9844 125.434 78.9844 124.17C78.9863 122.475 79.6567 120.85 80.8485 119.652C82.0404 118.453 83.6563 117.779 85.3418 117.777Z"/>
</mask>
<path d="M100.005 65.2283C100.806 65.659 101.707 65.8625 102.614 65.817C103.52 65.7715 104.397 65.4787 105.151 64.97L127.721 49.7716C128.405 49.3112 128.965 48.6886 129.353 47.9587C129.74 47.2289 129.943 46.4143 129.943 45.587C129.943 44.7597 129.74 43.9451 129.353 43.2152C128.965 42.4854 128.405 41.8628 127.721 41.4024L105.15 26.2039C104.396 25.6964 103.52 25.4042 102.613 25.3588C101.707 25.3134 100.806 25.5164 100.005 25.946C99.2051 26.3757 98.5359 27.016 98.0692 27.7984C97.6026 28.5808 97.3561 29.476 97.3561 30.3883V60.7857C97.355 61.6982 97.6011 62.5938 98.0677 63.3764C98.5344 64.1591 99.2041 64.7992 100.005 65.2283H100.005ZM103.713 32.9301L122.509 45.5868L103.713 58.2438V32.9301ZM212.702 159.33H205.285V43.1928C205.28 38.9555 203.604 34.8932 200.625 31.8969C197.645 28.9007 193.605 27.2154 189.392 27.2106H149.896C146.382 19.399 140.704 12.7717 133.54 8.12295C126.376 3.47418 118.031 1.00108 109.506 1C100.98 0.998921 92.6344 3.4699 85.4695 8.11686C78.3046 12.7638 72.6241 19.3896 69.1088 27.2004L29.6084 27.211C25.3946 27.2158 21.3548 28.9011 18.3752 31.8974C15.3956 34.8936 13.7196 38.956 13.7148 43.1933V159.331H6.29785C4.89326 159.332 3.54664 159.894 2.55344 160.893C1.56024 161.892 1.00157 163.246 1 164.658L1 177.018C1.00471 181.255 2.68072 185.317 5.66032 188.314C8.63992 191.31 12.6798 192.995 16.8936 193H202.106C206.32 192.995 210.36 191.31 213.34 188.314C216.319 185.317 217.995 181.255 218 177.018V164.658C217.998 163.246 217.44 161.892 216.447 160.893C215.453 159.894 214.107 159.332 212.702 159.331V159.33ZM109.5 7.39308C117.012 7.39308 124.355 9.63309 130.602 13.8299C136.848 18.0266 141.716 23.9916 144.591 30.9706C147.465 37.9495 148.218 45.629 146.752 53.0378C145.286 60.4467 141.669 67.2521 136.357 72.5936C131.046 77.9351 124.278 81.5728 116.91 83.0465C109.542 84.5203 101.906 83.764 94.9653 80.8733C88.025 77.9825 82.093 73.0872 77.9195 66.8064C73.746 60.5255 71.5183 53.1412 71.5182 45.5872C71.5295 35.4611 75.5348 25.7529 82.6553 18.5926C89.7758 11.4323 99.43 7.40459 109.5 7.39308ZM109.5 90.1742C120.383 90.1603 130.883 86.1273 139.004 78.8414C147.125 71.5554 152.302 61.5238 153.551 50.6521H181.975V142.283H37.0254V50.6521H65.4486C66.6984 61.5237 71.8755 71.5552 79.9964 78.8411C88.1174 86.127 98.6167 90.1599 109.5 90.1738V90.1742ZM20.0723 43.1933C20.0752 40.6508 21.0809 38.2133 22.8689 36.4155C24.6568 34.6178 27.0809 33.6066 29.6092 33.6039L66.7917 33.5937C65.8262 37.0697 65.2856 40.6512 65.182 44.2587H35.9658C34.5612 44.2603 33.2146 44.8221 32.2214 45.8209C31.2282 46.8196 30.6695 48.1737 30.668 49.5862V143.349C30.6695 144.761 31.2282 146.115 32.2214 147.114C33.2146 148.113 34.5612 148.674 35.9658 148.676H183.034C184.439 148.674 185.785 148.113 186.779 147.114C187.772 146.115 188.33 144.761 188.332 143.349V49.5862C188.33 48.1737 187.772 46.8196 186.779 45.8209C185.785 44.8221 184.439 44.2603 183.034 44.2587H153.818C153.714 40.6547 153.175 37.0768 152.211 33.6039H189.392C191.92 33.6068 194.344 34.618 196.132 36.4157C197.919 38.2134 198.925 40.6509 198.928 43.1933V159.331H20.0723V43.1933ZM128.451 165.724L125.735 171.915C125.486 172.482 125.078 172.964 124.562 173.302C124.046 173.641 123.443 173.821 122.826 173.821H96.1736C95.5572 173.821 94.9541 173.641 94.4377 173.302C93.9213 172.964 93.5138 172.482 93.2648 171.915L90.5485 165.724H128.451ZM211.643 177.018C211.64 179.56 210.634 181.997 208.846 183.795C207.059 185.593 204.635 186.604 202.106 186.607H16.8936C14.3653 186.604 11.9415 185.593 10.1537 183.795C8.36597 181.997 7.36034 179.56 7.35742 177.018V165.724H83.5999L87.4482 174.496C88.1951 176.196 89.4174 177.642 90.9665 178.658C92.5155 179.673 94.3246 180.214 96.1736 180.214H122.826C124.675 180.214 126.484 179.673 128.033 178.658C129.582 177.642 130.804 176.196 131.551 174.496L135.4 165.724H211.643V177.018ZM49.7402 124.17C49.7402 125.018 50.0751 125.831 50.6713 126.43C51.2674 127.03 52.0759 127.366 52.9189 127.366H73.0296C73.7348 130.111 75.3267 132.542 77.5554 134.277C79.784 136.013 82.523 136.955 85.3418 136.955C88.1606 136.955 90.8996 136.013 93.1282 134.277C95.3568 132.542 96.9488 130.111 97.654 127.366H166.081C166.924 127.366 167.733 127.03 168.329 126.43C168.925 125.831 169.26 125.018 169.26 124.17C169.26 123.322 168.925 122.509 168.329 121.91C167.733 121.31 166.924 120.973 166.081 120.973H97.654C96.9488 118.229 95.3568 115.798 93.1282 114.062C90.8996 112.327 88.1606 111.385 85.3418 111.385C82.523 111.385 79.784 112.327 77.5554 114.062C75.3267 115.798 73.7348 118.229 73.0296 120.973H52.9189C52.0759 120.973 51.2674 121.31 50.6713 121.91C50.0751 122.509 49.7402 123.322 49.7402 124.17ZM85.3418 117.777C86.5992 117.777 87.8283 118.152 88.8738 118.854C89.9193 119.557 90.7341 120.555 91.2153 121.723C91.6965 122.892 91.8224 124.177 91.5771 125.417C91.3318 126.657 90.7263 127.796 89.8372 128.69C88.9481 129.584 87.8153 130.193 86.5821 130.44C85.3489 130.687 84.0706 130.56 82.9089 130.076C81.7473 129.592 80.7544 128.773 80.0558 127.722C79.3572 126.67 78.9844 125.434 78.9844 124.17C78.9863 122.475 79.6567 120.85 80.8485 119.652C82.0404 118.453 83.6563 117.779 85.3418 117.777Z" fill="white"/>
<path d="M100.005 65.2283C100.806 65.659 101.707 65.8625 102.614 65.817C103.52 65.7715 104.397 65.4787 105.151 64.97L127.721 49.7716C128.405 49.3112 128.965 48.6886 129.353 47.9587C129.74 47.2289 129.943 46.4143 129.943 45.587C129.943 44.7597 129.74 43.9451 129.353 43.2152C128.965 42.4854 128.405 41.8628 127.721 41.4024L105.15 26.2039C104.396 25.6964 103.52 25.4042 102.613 25.3588C101.707 25.3134 100.806 25.5164 100.005 25.946C99.2051 26.3757 98.5359 27.016 98.0692 27.7984C97.6026 28.5808 97.3561 29.476 97.3561 30.3883V60.7857C97.355 61.6982 97.6011 62.5938 98.0677 63.3764C98.5344 64.1591 99.2041 64.7992 100.005 65.2283H100.005ZM103.713 32.9301L122.509 45.5868L103.713 58.2438V32.9301ZM212.702 159.33H205.285V43.1928C205.28 38.9555 203.604 34.8932 200.625 31.8969C197.645 28.9007 193.605 27.2154 189.392 27.2106H149.896C146.382 19.399 140.704 12.7717 133.54 8.12295C126.376 3.47418 118.031 1.00108 109.506 1C100.98 0.998921 92.6344 3.4699 85.4695 8.11686C78.3046 12.7638 72.6241 19.3896 69.1088 27.2004L29.6084 27.211C25.3946 27.2158 21.3548 28.9011 18.3752 31.8974C15.3956 34.8936 13.7196 38.956 13.7148 43.1933V159.331H6.29785C4.89326 159.332 3.54664 159.894 2.55344 160.893C1.56024 161.892 1.00157 163.246 1 164.658L1 177.018C1.00471 181.255 2.68072 185.317 5.66032 188.314C8.63992 191.31 12.6798 192.995 16.8936 193H202.106C206.32 192.995 210.36 191.31 213.34 188.314C216.319 185.317 217.995 181.255 218 177.018V164.658C217.998 163.246 217.44 161.892 216.447 160.893C215.453 159.894 214.107 159.332 212.702 159.331V159.33ZM109.5 7.39308C117.012 7.39308 124.355 9.63309 130.602 13.8299C136.848 18.0266 141.716 23.9916 144.591 30.9706C147.465 37.9495 148.218 45.629 146.752 53.0378C145.286 60.4467 141.669 67.2521 136.357 72.5936C131.046 77.9351 124.278 81.5728 116.91 83.0465C109.542 84.5203 101.906 83.764 94.9653 80.8733C88.025 77.9825 82.093 73.0872 77.9195 66.8064C73.746 60.5255 71.5183 53.1412 71.5182 45.5872C71.5295 35.4611 75.5348 25.7529 82.6553 18.5926C89.7758 11.4323 99.43 7.40459 109.5 7.39308ZM109.5 90.1742C120.383 90.1603 130.883 86.1273 139.004 78.8414C147.125 71.5554 152.302 61.5238 153.551 50.6521H181.975V142.283H37.0254V50.6521H65.4486C66.6984 61.5237 71.8755 71.5552 79.9964 78.8411C88.1174 86.127 98.6167 90.1599 109.5 90.1738V90.1742ZM20.0723 43.1933C20.0752 40.6508 21.0809 38.2133 22.8689 36.4155C24.6568 34.6178 27.0809 33.6066 29.6092 33.6039L66.7917 33.5937C65.8262 37.0697 65.2856 40.6512 65.182 44.2587H35.9658C34.5612 44.2603 33.2146 44.8221 32.2214 45.8209C31.2282 46.8196 30.6695 48.1737 30.668 49.5862V143.349C30.6695 144.761 31.2282 146.115 32.2214 147.114C33.2146 148.113 34.5612 148.674 35.9658 148.676H183.034C184.439 148.674 185.785 148.113 186.779 147.114C187.772 146.115 188.33 144.761 188.332 143.349V49.5862C188.33 48.1737 187.772 46.8196 186.779 45.8209C185.785 44.8221 184.439 44.2603 183.034 44.2587H153.818C153.714 40.6547 153.175 37.0768 152.211 33.6039H189.392C191.92 33.6068 194.344 34.618 196.132 36.4157C197.919 38.2134 198.925 40.6509 198.928 43.1933V159.331H20.0723V43.1933ZM128.451 165.724L125.735 171.915C125.486 172.482 125.078 172.964 124.562 173.302C124.046 173.641 123.443 173.821 122.826 173.821H96.1736C95.5572 173.821 94.9541 173.641 94.4377 173.302C93.9213 172.964 93.5138 172.482 93.2648 171.915L90.5485 165.724H128.451ZM211.643 177.018C211.64 179.56 210.634 181.997 208.846 183.795C207.059 185.593 204.635 186.604 202.106 186.607H16.8936C14.3653 186.604 11.9415 185.593 10.1537 183.795C8.36597 181.997 7.36034 179.56 7.35742 177.018V165.724H83.5999L87.4482 174.496C88.1951 176.196 89.4174 177.642 90.9665 178.658C92.5155 179.673 94.3246 180.214 96.1736 180.214H122.826C124.675 180.214 126.484 179.673 128.033 178.658C129.582 177.642 130.804 176.196 131.551 174.496L135.4 165.724H211.643V177.018ZM49.7402 124.17C49.7402 125.018 50.0751 125.831 50.6713 126.43C51.2674 127.03 52.0759 127.366 52.9189 127.366H73.0296C73.7348 130.111 75.3267 132.542 77.5554 134.277C79.784 136.013 82.523 136.955 85.3418 136.955C88.1606 136.955 90.8996 136.013 93.1282 134.277C95.3568 132.542 96.9488 130.111 97.654 127.366H166.081C166.924 127.366 167.733 127.03 168.329 126.43C168.925 125.831 169.26 125.018 169.26 124.17C169.26 123.322 168.925 122.509 168.329 121.91C167.733 121.31 166.924 120.973 166.081 120.973H97.654C96.9488 118.229 95.3568 115.798 93.1282 114.062C90.8996 112.327 88.1606 111.385 85.3418 111.385C82.523 111.385 79.784 112.327 77.5554 114.062C75.3267 115.798 73.7348 118.229 73.0296 120.973H52.9189C52.0759 120.973 51.2674 121.31 50.6713 121.91C50.0751 122.509 49.7402 123.322 49.7402 124.17ZM85.3418 117.777C86.5992 117.777 87.8283 118.152 88.8738 118.854C89.9193 119.557 90.7341 120.555 91.2153 121.723C91.6965 122.892 91.8224 124.177 91.5771 125.417C91.3318 126.657 90.7263 127.796 89.8372 128.69C88.9481 129.584 87.8153 130.193 86.5821 130.44C85.3489 130.687 84.0706 130.56 82.9089 130.076C81.7473 129.592 80.7544 128.773 80.0558 127.722C79.3572 126.67 78.9844 125.434 78.9844 124.17C78.9863 122.475 79.6567 120.85 80.8485 119.652C82.0404 118.453 83.6563 117.779 85.3418 117.777Z" stroke="white" stroke-width="2" mask="url(#path-1-outside-1_117_1016)"/>
</svg>
