<svg width="194" height="187" viewBox="0 0 194 187" fill="none" xmlns="http://www.w3.org/2000/svg">
<mask id="path-1-outside-1_117_965" maskUnits="userSpaceOnUse" x="0" y="0" width="194" height="187" fill="black">
<rect fill="white" width="194" height="187"/>
<path d="M181 49.5507H144.6C144.036 46.646 142.833 43.904 141.08 41.5243L160.52 7.17121C160.812 6.71126 161.008 6.19633 161.096 5.65788C161.183 5.11943 161.16 4.56877 161.028 4.03954C160.896 3.5103 160.658 3.01361 160.328 2.5798C159.999 2.14599 159.584 1.78418 159.11 1.51647C158.637 1.24876 158.114 1.08076 157.573 1.02275C157.032 0.964745 156.485 1.01794 155.966 1.17908C155.446 1.34023 154.965 1.60594 154.552 1.95999C154.138 2.31404 153.8 2.74899 153.56 3.23826L134.92 36.2269C131.911 34.4159 128.469 33.4592 124.96 33.4592C121.451 33.4592 118.009 34.4159 115 36.2269L96.44 3.39879C96.1995 2.90951 95.8621 2.47456 95.4485 2.12052C95.0348 1.76647 94.5535 1.50076 94.034 1.33961C93.5146 1.17847 92.9678 1.12527 92.4271 1.18328C91.8865 1.24129 91.3633 1.40928 90.8895 1.677C90.4158 1.94471 90.0014 2.30652 89.6717 2.74033C89.342 3.17414 89.1039 3.67083 88.972 4.20007C88.8401 4.7293 88.8171 5.27996 88.9044 5.81841C88.9918 6.35686 89.1876 6.87179 89.48 7.33174L108.92 41.5243C107.167 43.904 105.964 46.646 105.4 49.5507H13C9.8174 49.5507 6.76515 50.8192 4.51472 53.0771C2.26428 55.3349 1 58.3973 1 61.5904L1 173.96C1 177.153 2.26428 180.216 4.51472 182.474C6.76515 184.732 9.8174 186 13 186H181C184.183 186 187.235 184.732 189.485 182.474C191.736 180.216 193 177.153 193 173.96V61.5904C193 58.3973 191.736 55.3349 189.485 53.0771C187.235 50.8192 184.183 49.5507 181 49.5507ZM125 41.5243C127.476 41.5313 129.889 42.3064 131.908 43.7434C133.928 45.1803 135.455 47.2088 136.28 49.5507H113.72C114.545 47.2088 116.072 45.1803 118.092 43.7434C120.111 42.3064 122.524 41.5313 125 41.5243ZM185 173.96C185 175.025 184.579 176.046 183.828 176.798C183.078 177.551 182.061 177.974 181 177.974H13C11.9391 177.974 10.9217 177.551 10.1716 176.798C9.42143 176.046 9 175.025 9 173.96V61.5904C9 60.526 9.42143 59.5052 10.1716 58.7526C10.9217 58 11.9391 57.5772 13 57.5772H181C182.061 57.5772 183.078 58 183.828 58.7526C184.579 59.5052 185 60.526 185 61.5904V173.96ZM125 65.6036H29C25.8174 65.6036 22.7652 66.872 20.5147 69.1299C18.2643 71.3878 17 74.4501 17 77.6432V157.908C17 161.101 18.2643 164.163 20.5147 166.421C22.7652 168.679 25.8174 169.947 29 169.947H125C128.183 169.947 131.235 168.679 133.485 166.421C135.736 164.163 137 161.101 137 157.908V77.6432C137 74.4501 135.736 71.3878 133.485 69.1299C131.235 66.872 128.183 65.6036 125 65.6036ZM129 157.908C129 158.972 128.579 159.993 127.828 160.745C127.078 161.498 126.061 161.921 125 161.921H29C27.9391 161.921 26.9217 161.498 26.1716 160.745C25.4214 159.993 25 158.972 25 157.908V77.6432C25 76.5789 25.4214 75.5581 26.1716 74.8055C26.9217 74.0528 27.9391 73.63 29 73.63H125C126.061 73.63 127.078 74.0528 127.828 74.8055C128.579 75.5581 129 76.5789 129 77.6432V157.908ZM161 65.6036C157.835 65.6036 154.742 66.5451 152.111 68.309C149.48 70.0729 147.429 72.58 146.218 75.5133C145.007 78.4466 144.69 81.6743 145.307 84.7882C145.925 87.9022 147.449 90.7625 149.686 93.0075C151.924 95.2526 154.775 96.7814 157.879 97.4008C160.982 98.0203 164.199 97.7024 167.123 96.4874C170.047 95.2723 172.545 93.2148 174.304 90.5749C176.062 87.9351 177 84.8314 177 81.6564C177 77.399 175.314 73.3159 172.314 70.3054C169.313 67.2949 165.243 65.6036 161 65.6036ZM161 89.6829C159.418 89.6829 157.871 89.2121 156.555 88.3302C155.24 87.4482 154.214 86.1947 153.609 84.728C153.003 83.2614 152.845 81.6475 153.154 80.0906C153.462 78.5336 154.224 77.1034 155.343 75.9809C156.462 74.8584 157.887 74.0939 159.439 73.7842C160.991 73.4745 162.6 73.6335 164.061 74.241C165.523 74.8485 166.773 75.8773 167.652 77.1972C168.531 78.5171 169 80.069 169 81.6564C169 83.7852 168.157 85.8267 166.657 87.332C165.157 88.8372 163.122 89.6829 161 89.6829ZM173 129.815H149C147.939 129.815 146.922 130.238 146.172 130.99C145.421 131.743 145 132.764 145 133.828C145 134.893 145.421 135.913 146.172 136.666C146.922 137.419 147.939 137.841 149 137.841H173C174.061 137.841 175.078 137.419 175.828 136.666C176.579 135.913 177 134.893 177 133.828C177 132.764 176.579 131.743 175.828 130.99C175.078 130.238 174.061 129.815 173 129.815ZM151.48 113.762C151.959 113.974 152.477 114.084 153 114.084C153.523 114.084 154.041 113.974 154.52 113.762C155.479 113.328 156.247 112.557 156.68 111.595C156.802 111.094 156.802 110.571 156.68 110.07C156.686 109.544 156.583 109.022 156.376 108.538C156.17 108.054 155.864 107.619 155.48 107.261C154.732 106.525 153.727 106.114 152.68 106.114C151.633 106.114 150.628 106.525 149.88 107.261C149.496 107.619 149.19 108.054 148.984 108.538C148.777 109.022 148.674 109.544 148.68 110.07C148.558 110.571 148.558 111.094 148.68 111.595C148.847 112.098 149.152 112.543 149.56 112.879C150.065 113.407 150.752 113.722 151.48 113.762ZM169 113.762C169.525 113.769 170.045 113.665 170.527 113.457C171.009 113.25 171.443 112.944 171.8 112.558C172.193 112.206 172.503 111.773 172.711 111.287C172.918 110.802 173.017 110.277 173 109.749C173.006 109.223 172.903 108.701 172.696 108.217C172.49 107.733 172.184 107.298 171.8 106.94C171.052 106.204 170.047 105.792 169 105.792C167.953 105.792 166.948 106.204 166.2 106.94C165.816 107.298 165.51 107.733 165.304 108.217C165.097 108.701 164.994 109.223 165 109.749C164.878 110.25 164.878 110.773 165 111.274C165.167 111.777 165.472 112.222 165.88 112.558C166.272 112.987 166.758 113.318 167.299 113.527C167.841 113.736 168.423 113.816 169 113.762ZM173 145.868H149C147.939 145.868 146.922 146.291 146.172 147.043C145.421 147.796 145 148.817 145 149.881C145 150.945 145.421 151.966 146.172 152.719C146.922 153.471 147.939 153.894 149 153.894H173C174.061 153.894 175.078 153.471 175.828 152.719C176.579 151.966 177 150.945 177 149.881C177 148.817 176.579 147.796 175.828 147.043C175.078 146.291 174.061 145.868 173 145.868ZM173 161.921H149C147.939 161.921 146.922 162.344 146.172 163.096C145.421 163.849 145 164.87 145 165.934C145 166.998 145.421 168.019 146.172 168.772C146.922 169.524 147.939 169.947 149 169.947H173C174.061 169.947 175.078 169.524 175.828 168.772C176.579 168.019 177 166.998 177 165.934C177 164.87 176.579 163.849 175.828 163.096C175.078 162.344 174.061 161.921 173 161.921Z"/>
</mask>
<path d="M181 49.5507H144.6C144.036 46.646 142.833 43.904 141.08 41.5243L160.52 7.17121C160.812 6.71126 161.008 6.19633 161.096 5.65788C161.183 5.11943 161.16 4.56877 161.028 4.03954C160.896 3.5103 160.658 3.01361 160.328 2.5798C159.999 2.14599 159.584 1.78418 159.11 1.51647C158.637 1.24876 158.114 1.08076 157.573 1.02275C157.032 0.964745 156.485 1.01794 155.966 1.17908C155.446 1.34023 154.965 1.60594 154.552 1.95999C154.138 2.31404 153.8 2.74899 153.56 3.23826L134.92 36.2269C131.911 34.4159 128.469 33.4592 124.96 33.4592C121.451 33.4592 118.009 34.4159 115 36.2269L96.44 3.39879C96.1995 2.90951 95.8621 2.47456 95.4485 2.12052C95.0348 1.76647 94.5535 1.50076 94.034 1.33961C93.5146 1.17847 92.9678 1.12527 92.4271 1.18328C91.8865 1.24129 91.3633 1.40928 90.8895 1.677C90.4158 1.94471 90.0014 2.30652 89.6717 2.74033C89.342 3.17414 89.1039 3.67083 88.972 4.20007C88.8401 4.7293 88.8171 5.27996 88.9044 5.81841C88.9918 6.35686 89.1876 6.87179 89.48 7.33174L108.92 41.5243C107.167 43.904 105.964 46.646 105.4 49.5507H13C9.8174 49.5507 6.76515 50.8192 4.51472 53.0771C2.26428 55.3349 1 58.3973 1 61.5904L1 173.96C1 177.153 2.26428 180.216 4.51472 182.474C6.76515 184.732 9.8174 186 13 186H181C184.183 186 187.235 184.732 189.485 182.474C191.736 180.216 193 177.153 193 173.96V61.5904C193 58.3973 191.736 55.3349 189.485 53.0771C187.235 50.8192 184.183 49.5507 181 49.5507ZM125 41.5243C127.476 41.5313 129.889 42.3064 131.908 43.7434C133.928 45.1803 135.455 47.2088 136.28 49.5507H113.72C114.545 47.2088 116.072 45.1803 118.092 43.7434C120.111 42.3064 122.524 41.5313 125 41.5243ZM185 173.96C185 175.025 184.579 176.046 183.828 176.798C183.078 177.551 182.061 177.974 181 177.974H13C11.9391 177.974 10.9217 177.551 10.1716 176.798C9.42143 176.046 9 175.025 9 173.96V61.5904C9 60.526 9.42143 59.5052 10.1716 58.7526C10.9217 58 11.9391 57.5772 13 57.5772H181C182.061 57.5772 183.078 58 183.828 58.7526C184.579 59.5052 185 60.526 185 61.5904V173.96ZM125 65.6036H29C25.8174 65.6036 22.7652 66.872 20.5147 69.1299C18.2643 71.3878 17 74.4501 17 77.6432V157.908C17 161.101 18.2643 164.163 20.5147 166.421C22.7652 168.679 25.8174 169.947 29 169.947H125C128.183 169.947 131.235 168.679 133.485 166.421C135.736 164.163 137 161.101 137 157.908V77.6432C137 74.4501 135.736 71.3878 133.485 69.1299C131.235 66.872 128.183 65.6036 125 65.6036ZM129 157.908C129 158.972 128.579 159.993 127.828 160.745C127.078 161.498 126.061 161.921 125 161.921H29C27.9391 161.921 26.9217 161.498 26.1716 160.745C25.4214 159.993 25 158.972 25 157.908V77.6432C25 76.5789 25.4214 75.5581 26.1716 74.8055C26.9217 74.0528 27.9391 73.63 29 73.63H125C126.061 73.63 127.078 74.0528 127.828 74.8055C128.579 75.5581 129 76.5789 129 77.6432V157.908ZM161 65.6036C157.835 65.6036 154.742 66.5451 152.111 68.309C149.48 70.0729 147.429 72.58 146.218 75.5133C145.007 78.4466 144.69 81.6743 145.307 84.7882C145.925 87.9022 147.449 90.7625 149.686 93.0075C151.924 95.2526 154.775 96.7814 157.879 97.4008C160.982 98.0203 164.199 97.7024 167.123 96.4874C170.047 95.2723 172.545 93.2148 174.304 90.5749C176.062 87.9351 177 84.8314 177 81.6564C177 77.399 175.314 73.3159 172.314 70.3054C169.313 67.2949 165.243 65.6036 161 65.6036ZM161 89.6829C159.418 89.6829 157.871 89.2121 156.555 88.3302C155.24 87.4482 154.214 86.1947 153.609 84.728C153.003 83.2614 152.845 81.6475 153.154 80.0906C153.462 78.5336 154.224 77.1034 155.343 75.9809C156.462 74.8584 157.887 74.0939 159.439 73.7842C160.991 73.4745 162.6 73.6335 164.061 74.241C165.523 74.8485 166.773 75.8773 167.652 77.1972C168.531 78.5171 169 80.069 169 81.6564C169 83.7852 168.157 85.8267 166.657 87.332C165.157 88.8372 163.122 89.6829 161 89.6829ZM173 129.815H149C147.939 129.815 146.922 130.238 146.172 130.99C145.421 131.743 145 132.764 145 133.828C145 134.893 145.421 135.913 146.172 136.666C146.922 137.419 147.939 137.841 149 137.841H173C174.061 137.841 175.078 137.419 175.828 136.666C176.579 135.913 177 134.893 177 133.828C177 132.764 176.579 131.743 175.828 130.99C175.078 130.238 174.061 129.815 173 129.815ZM151.48 113.762C151.959 113.974 152.477 114.084 153 114.084C153.523 114.084 154.041 113.974 154.52 113.762C155.479 113.328 156.247 112.557 156.68 111.595C156.802 111.094 156.802 110.571 156.68 110.07C156.686 109.544 156.583 109.022 156.376 108.538C156.17 108.054 155.864 107.619 155.48 107.261C154.732 106.525 153.727 106.114 152.68 106.114C151.633 106.114 150.628 106.525 149.88 107.261C149.496 107.619 149.19 108.054 148.984 108.538C148.777 109.022 148.674 109.544 148.68 110.07C148.558 110.571 148.558 111.094 148.68 111.595C148.847 112.098 149.152 112.543 149.56 112.879C150.065 113.407 150.752 113.722 151.48 113.762ZM169 113.762C169.525 113.769 170.045 113.665 170.527 113.457C171.009 113.25 171.443 112.944 171.8 112.558C172.193 112.206 172.503 111.773 172.711 111.287C172.918 110.802 173.017 110.277 173 109.749C173.006 109.223 172.903 108.701 172.696 108.217C172.49 107.733 172.184 107.298 171.8 106.94C171.052 106.204 170.047 105.792 169 105.792C167.953 105.792 166.948 106.204 166.2 106.94C165.816 107.298 165.51 107.733 165.304 108.217C165.097 108.701 164.994 109.223 165 109.749C164.878 110.25 164.878 110.773 165 111.274C165.167 111.777 165.472 112.222 165.88 112.558C166.272 112.987 166.758 113.318 167.299 113.527C167.841 113.736 168.423 113.816 169 113.762ZM173 145.868H149C147.939 145.868 146.922 146.291 146.172 147.043C145.421 147.796 145 148.817 145 149.881C145 150.945 145.421 151.966 146.172 152.719C146.922 153.471 147.939 153.894 149 153.894H173C174.061 153.894 175.078 153.471 175.828 152.719C176.579 151.966 177 150.945 177 149.881C177 148.817 176.579 147.796 175.828 147.043C175.078 146.291 174.061 145.868 173 145.868ZM173 161.921H149C147.939 161.921 146.922 162.344 146.172 163.096C145.421 163.849 145 164.87 145 165.934C145 166.998 145.421 168.019 146.172 168.772C146.922 169.524 147.939 169.947 149 169.947H173C174.061 169.947 175.078 169.524 175.828 168.772C176.579 168.019 177 166.998 177 165.934C177 164.87 176.579 163.849 175.828 163.096C175.078 162.344 174.061 161.921 173 161.921Z" fill="white"/>
<path d="M181 49.5507H144.6C144.036 46.646 142.833 43.904 141.08 41.5243L160.52 7.17121C160.812 6.71126 161.008 6.19633 161.096 5.65788C161.183 5.11943 161.16 4.56877 161.028 4.03954C160.896 3.5103 160.658 3.01361 160.328 2.5798C159.999 2.14599 159.584 1.78418 159.11 1.51647C158.637 1.24876 158.114 1.08076 157.573 1.02275C157.032 0.964745 156.485 1.01794 155.966 1.17908C155.446 1.34023 154.965 1.60594 154.552 1.95999C154.138 2.31404 153.8 2.74899 153.56 3.23826L134.92 36.2269C131.911 34.4159 128.469 33.4592 124.96 33.4592C121.451 33.4592 118.009 34.4159 115 36.2269L96.44 3.39879C96.1995 2.90951 95.8621 2.47456 95.4485 2.12052C95.0348 1.76647 94.5535 1.50076 94.034 1.33961C93.5146 1.17847 92.9678 1.12527 92.4271 1.18328C91.8865 1.24129 91.3633 1.40928 90.8895 1.677C90.4158 1.94471 90.0014 2.30652 89.6717 2.74033C89.342 3.17414 89.1039 3.67083 88.972 4.20007C88.8401 4.7293 88.8171 5.27996 88.9044 5.81841C88.9918 6.35686 89.1876 6.87179 89.48 7.33174L108.92 41.5243C107.167 43.904 105.964 46.646 105.4 49.5507H13C9.8174 49.5507 6.76515 50.8192 4.51472 53.0771C2.26428 55.3349 1 58.3973 1 61.5904L1 173.96C1 177.153 2.26428 180.216 4.51472 182.474C6.76515 184.732 9.8174 186 13 186H181C184.183 186 187.235 184.732 189.485 182.474C191.736 180.216 193 177.153 193 173.96V61.5904C193 58.3973 191.736 55.3349 189.485 53.0771C187.235 50.8192 184.183 49.5507 181 49.5507ZM125 41.5243C127.476 41.5313 129.889 42.3064 131.908 43.7434C133.928 45.1803 135.455 47.2088 136.28 49.5507H113.72C114.545 47.2088 116.072 45.1803 118.092 43.7434C120.111 42.3064 122.524 41.5313 125 41.5243ZM185 173.96C185 175.025 184.579 176.046 183.828 176.798C183.078 177.551 182.061 177.974 181 177.974H13C11.9391 177.974 10.9217 177.551 10.1716 176.798C9.42143 176.046 9 175.025 9 173.96V61.5904C9 60.526 9.42143 59.5052 10.1716 58.7526C10.9217 58 11.9391 57.5772 13 57.5772H181C182.061 57.5772 183.078 58 183.828 58.7526C184.579 59.5052 185 60.526 185 61.5904V173.96ZM125 65.6036H29C25.8174 65.6036 22.7652 66.872 20.5147 69.1299C18.2643 71.3878 17 74.4501 17 77.6432V157.908C17 161.101 18.2643 164.163 20.5147 166.421C22.7652 168.679 25.8174 169.947 29 169.947H125C128.183 169.947 131.235 168.679 133.485 166.421C135.736 164.163 137 161.101 137 157.908V77.6432C137 74.4501 135.736 71.3878 133.485 69.1299C131.235 66.872 128.183 65.6036 125 65.6036ZM129 157.908C129 158.972 128.579 159.993 127.828 160.745C127.078 161.498 126.061 161.921 125 161.921H29C27.9391 161.921 26.9217 161.498 26.1716 160.745C25.4214 159.993 25 158.972 25 157.908V77.6432C25 76.5789 25.4214 75.5581 26.1716 74.8055C26.9217 74.0528 27.9391 73.63 29 73.63H125C126.061 73.63 127.078 74.0528 127.828 74.8055C128.579 75.5581 129 76.5789 129 77.6432V157.908ZM161 65.6036C157.835 65.6036 154.742 66.5451 152.111 68.309C149.48 70.0729 147.429 72.58 146.218 75.5133C145.007 78.4466 144.69 81.6743 145.307 84.7882C145.925 87.9022 147.449 90.7625 149.686 93.0075C151.924 95.2526 154.775 96.7814 157.879 97.4008C160.982 98.0203 164.199 97.7024 167.123 96.4874C170.047 95.2723 172.545 93.2148 174.304 90.5749C176.062 87.9351 177 84.8314 177 81.6564C177 77.399 175.314 73.3159 172.314 70.3054C169.313 67.2949 165.243 65.6036 161 65.6036ZM161 89.6829C159.418 89.6829 157.871 89.2121 156.555 88.3302C155.24 87.4482 154.214 86.1947 153.609 84.728C153.003 83.2614 152.845 81.6475 153.154 80.0906C153.462 78.5336 154.224 77.1034 155.343 75.9809C156.462 74.8584 157.887 74.0939 159.439 73.7842C160.991 73.4745 162.6 73.6335 164.061 74.241C165.523 74.8485 166.773 75.8773 167.652 77.1972C168.531 78.5171 169 80.069 169 81.6564C169 83.7852 168.157 85.8267 166.657 87.332C165.157 88.8372 163.122 89.6829 161 89.6829ZM173 129.815H149C147.939 129.815 146.922 130.238 146.172 130.99C145.421 131.743 145 132.764 145 133.828C145 134.893 145.421 135.913 146.172 136.666C146.922 137.419 147.939 137.841 149 137.841H173C174.061 137.841 175.078 137.419 175.828 136.666C176.579 135.913 177 134.893 177 133.828C177 132.764 176.579 131.743 175.828 130.99C175.078 130.238 174.061 129.815 173 129.815ZM151.48 113.762C151.959 113.974 152.477 114.084 153 114.084C153.523 114.084 154.041 113.974 154.52 113.762C155.479 113.328 156.247 112.557 156.68 111.595C156.802 111.094 156.802 110.571 156.68 110.07C156.686 109.544 156.583 109.022 156.376 108.538C156.17 108.054 155.864 107.619 155.48 107.261C154.732 106.525 153.727 106.114 152.68 106.114C151.633 106.114 150.628 106.525 149.88 107.261C149.496 107.619 149.19 108.054 148.984 108.538C148.777 109.022 148.674 109.544 148.68 110.07C148.558 110.571 148.558 111.094 148.68 111.595C148.847 112.098 149.152 112.543 149.56 112.879C150.065 113.407 150.752 113.722 151.48 113.762ZM169 113.762C169.525 113.769 170.045 113.665 170.527 113.457C171.009 113.25 171.443 112.944 171.8 112.558C172.193 112.206 172.503 111.773 172.711 111.287C172.918 110.802 173.017 110.277 173 109.749C173.006 109.223 172.903 108.701 172.696 108.217C172.49 107.733 172.184 107.298 171.8 106.94C171.052 106.204 170.047 105.792 169 105.792C167.953 105.792 166.948 106.204 166.2 106.94C165.816 107.298 165.51 107.733 165.304 108.217C165.097 108.701 164.994 109.223 165 109.749C164.878 110.25 164.878 110.773 165 111.274C165.167 111.777 165.472 112.222 165.88 112.558C166.272 112.987 166.758 113.318 167.299 113.527C167.841 113.736 168.423 113.816 169 113.762ZM173 145.868H149C147.939 145.868 146.922 146.291 146.172 147.043C145.421 147.796 145 148.817 145 149.881C145 150.945 145.421 151.966 146.172 152.719C146.922 153.471 147.939 153.894 149 153.894H173C174.061 153.894 175.078 153.471 175.828 152.719C176.579 151.966 177 150.945 177 149.881C177 148.817 176.579 147.796 175.828 147.043C175.078 146.291 174.061 145.868 173 145.868ZM173 161.921H149C147.939 161.921 146.922 162.344 146.172 163.096C145.421 163.849 145 164.87 145 165.934C145 166.998 145.421 168.019 146.172 168.772C146.922 169.524 147.939 169.947 149 169.947H173C174.061 169.947 175.078 169.524 175.828 168.772C176.579 168.019 177 166.998 177 165.934C177 164.87 176.579 163.849 175.828 163.096C175.078 162.344 174.061 161.921 173 161.921Z" stroke="white" stroke-width="2" mask="url(#path-1-outside-1_117_965)"/>
</svg>
