<svg width="186" height="181" viewBox="0 0 186 181" fill="none" xmlns="http://www.w3.org/2000/svg">
<path d="M136.719 130.024L136.723 130.02C144.516 120.44 148.913 108.547 149.225 96.2012L149.225 96.1999C149.564 81.2453 144.004 66.7581 133.747 55.8698C123.49 44.9815 109.361 38.5669 94.4127 38.0124L94.4095 38.0123C83.6078 37.68 72.939 40.4659 63.6788 46.037C54.4186 51.608 46.959 59.7284 42.1921 69.4271C37.4252 79.1258 35.5527 89.9922 36.7985 100.727C38.0443 111.462 42.3557 121.611 49.2171 129.96L49.2214 129.965C50.0886 130.992 50.5644 132.293 50.5644 133.638C50.5644 134.983 50.0886 136.284 49.2214 137.311L49.221 137.312C48.6864 137.947 48.0194 138.457 47.2669 138.808C46.5143 139.158 45.6943 139.339 44.8642 139.339C44.0341 139.339 43.2141 139.158 42.4615 138.808C41.7101 138.458 41.0441 137.948 40.5099 137.315C32.4248 127.399 27.3177 115.393 25.7814 102.691C24.245 89.9871 26.3432 77.1084 31.8323 65.5496C37.3215 53.9908 45.9765 44.2259 56.7926 37.3885C67.6087 30.5512 80.1423 26.9219 92.9383 26.9219C105.734 26.9219 118.268 30.5512 129.084 37.3885C139.9 44.2259 148.555 53.9908 154.044 65.5496C159.533 77.1084 161.632 89.9871 160.095 102.691C158.559 115.392 153.452 127.397 145.368 137.313C144.834 137.936 144.172 138.437 143.426 138.78C142.679 139.124 141.866 139.303 141.043 139.303C140.221 139.303 139.408 139.124 138.661 138.78C137.914 138.437 137.251 137.935 136.717 137.311C135.866 136.288 135.4 135 135.4 133.669C135.4 132.337 135.867 131.048 136.719 130.024Z" fill="white" stroke="white"/>
<path d="M173.632 86.7868L173.632 86.7861C171.638 66.0884 161.764 46.9491 146.053 33.3281C130.341 19.7071 109.995 12.6466 89.224 13.6075C68.4526 14.5684 48.8454 23.4771 34.4589 38.4905C20.0724 53.5039 12.0075 73.473 11.9328 94.2664L11.9328 94.2669C11.8821 113.817 18.9492 132.716 31.8142 147.436C32.7101 148.524 33.1712 149.905 33.1081 151.312C33.045 152.722 32.461 154.058 31.4691 155.061C30.9081 155.624 30.2355 156.063 29.4946 156.351C28.7536 156.638 27.9606 156.767 27.1667 156.729C26.3728 156.692 25.5955 156.489 24.8849 156.133C24.1743 155.777 23.5461 155.276 23.0406 154.662L23.0408 154.662L23.0321 154.652C7.87157 137.219 -0.159055 114.712 0.542361 91.6195H0.542426L0.542541 91.6115C0.893895 67.0984 10.9687 43.7289 28.5505 26.6439C46.1323 9.55898 69.781 0.158152 94.2941 0.509506C118.807 0.860861 142.177 10.9356 159.262 28.5174C176.347 46.0993 185.747 69.748 185.396 94.2611L185.396 94.2694C185.447 116.454 177.457 137.906 162.906 154.652L162.906 154.652L162.898 154.662C162.393 155.276 161.764 155.777 161.054 156.133C160.343 156.489 159.566 156.692 158.772 156.729C157.978 156.767 157.185 156.638 156.444 156.351C155.703 156.063 155.03 155.624 154.469 155.061C153.478 154.058 152.894 152.722 152.831 151.312C152.767 149.905 153.229 148.524 154.125 147.436C161.323 139.182 166.765 129.548 170.118 119.122C173.473 108.694 174.668 97.692 173.632 86.7868Z" fill="white" stroke="white"/>
<path d="M92.9694 130.939C85.7166 130.939 78.6267 128.788 72.5963 124.759C66.5658 120.729 61.8656 115.002 59.0901 108.302C56.3146 101.601 55.5884 94.2276 57.0033 87.1141C58.4183 80.0007 61.9108 73.4666 67.0393 68.3381C72.1678 63.2097 78.7019 59.7171 85.8153 58.3022C92.9287 56.8872 100.302 57.6134 107.003 60.3889C113.703 63.1645 119.431 67.8646 123.46 73.8951C127.489 79.9256 129.64 87.0155 129.64 94.2682C129.64 103.994 125.777 113.321 118.9 120.198C112.022 127.075 102.695 130.939 92.9694 130.939ZM92.9694 68.9878C87.9694 68.9878 83.0817 70.4705 78.9243 73.2483C74.767 76.0262 71.5267 79.9744 69.6133 84.5938C67.6999 89.2132 67.1993 94.2963 68.1747 99.2002C69.1502 104.104 71.5579 108.609 75.0934 112.144C78.629 115.68 83.1335 118.087 88.0374 119.063C92.9414 120.038 98.0244 119.538 102.644 117.624C107.263 115.711 111.211 112.471 113.989 108.313C116.767 104.156 118.25 99.2682 118.25 94.2682C118.25 87.5634 115.586 81.1333 110.845 76.3923C106.104 71.6512 99.6742 68.9878 92.9694 68.9878Z" fill="white" stroke="white"/>
<path d="M92.9692 180.5C91.4588 180.5 90.0102 179.9 88.9422 178.832C87.8741 177.764 87.2741 176.315 87.2741 174.805V125.744H98.6643V174.805C98.6643 176.315 98.0643 177.764 96.9963 178.832C95.9282 179.9 94.4797 180.5 92.9692 180.5Z" fill="white" stroke="white"/>
<path d="M123.445 94.2682C123.445 111.099 109.801 124.744 92.9693 124.744C76.1382 124.744 62.4938 111.099 62.4938 94.2682C62.4938 77.437 76.1382 63.7926 92.9693 63.7926C109.801 63.7926 123.445 77.437 123.445 94.2682Z" fill="white" stroke="white"/>
</svg>
