<svg width="162" height="186" viewBox="0 0 162 186" fill="none" xmlns="http://www.w3.org/2000/svg">
<path d="M155.989 34.4519L84.4117 0.853374C83.2139 0.291357 81.907 0 80.5839 0C79.2607 0 77.9539 0.291357 76.756 0.853374L5.17919 34.4519C3.63112 35.1769 2.32174 36.3281 1.40446 37.7706C0.487181 39.2131 0 40.8871 0 42.5965C0 44.306 0.487181 45.98 1.40446 47.4225C2.32174 48.865 3.63112 50.0162 5.17919 50.7412L76.756 84.3397C77.954 84.9013 79.2608 85.1924 80.5839 85.1924C81.9069 85.1924 83.2138 84.9013 84.4117 84.3397L155.989 50.7412C157.535 50.0144 158.842 48.8626 159.758 47.4203C160.673 45.978 161.16 44.3049 161.16 42.5965C161.16 40.8881 160.673 39.215 159.758 37.7728C158.842 36.3305 157.535 35.1787 155.989 34.4519ZM80.5839 66.2505L30.1861 42.5995L80.5839 18.9426L130.982 42.5935L80.5839 66.2565V66.2505Z" fill="white"/>
<path d="M160.308 72.3704C159.294 70.2106 157.463 68.5423 155.218 67.7322C152.973 66.9221 150.499 67.0366 148.339 68.0506L80.5838 99.8552L12.8288 68.0566C10.6687 67.0422 8.19416 66.9274 5.94945 67.7376C3.70473 68.5477 1.87378 70.2163 0.859371 72.3764C-0.155037 74.5365 -0.269803 77.0111 0.540319 79.2558C1.35044 81.5005 3.01909 83.3315 5.17918 84.3459L76.756 117.944C77.954 118.506 79.2608 118.797 80.5838 118.797C81.9069 118.797 83.2137 118.506 84.4117 117.944L155.989 84.3459C157.058 83.8441 158.019 83.1363 158.815 82.263C159.612 81.3897 160.228 80.3681 160.629 79.2565C161.03 78.1448 161.208 76.965 161.153 75.7845C161.098 74.604 160.811 73.4399 160.308 72.3704Z" fill="white"/>
<path d="M160.308 105.969C159.294 103.809 157.463 102.141 155.218 101.331C152.973 100.521 150.499 100.635 148.339 101.649L80.5838 133.448L12.8288 101.649C10.6687 100.635 8.19416 100.52 5.94945 101.33C3.70473 102.14 1.87378 103.809 0.859371 105.969C-0.155037 108.129 -0.269803 110.604 0.540319 112.848C1.35044 115.093 3.01909 116.924 5.17918 117.938L76.756 151.537C77.954 152.098 79.2608 152.39 80.5838 152.39C81.9069 152.39 83.2137 152.098 84.4117 151.537L155.989 117.938C157.058 117.436 158.019 116.729 158.815 115.855C159.612 114.982 160.228 113.96 160.629 112.849C161.03 111.737 161.208 110.557 161.153 109.377C161.098 108.196 160.811 107.038 160.308 105.969Z" fill="white"/>
<path d="M160.308 139.567C159.294 137.407 157.463 135.739 155.218 134.929C152.973 134.119 150.499 134.233 148.339 135.247L80.5839 167.052L12.8289 135.253C10.668 134.239 8.19263 134.125 5.94735 134.935C3.70208 135.746 1.87081 137.415 0.856402 139.576C-0.158007 141.737 -0.272457 144.212 0.538227 146.458C1.34891 148.703 3.01832 150.534 5.17921 151.549L76.7561 185.147C77.954 185.709 79.2608 186 80.5839 186C81.9069 186 83.2138 185.709 84.4117 185.147L155.989 151.549C157.059 151.047 158.021 150.339 158.817 149.465C159.614 148.591 160.231 147.569 160.632 146.457C161.033 145.344 161.211 144.164 161.156 142.983C161.1 141.802 160.812 140.643 160.308 139.573V139.567Z" fill="white"/>
</svg>
